<?xml version="1.0" encoding="UTF-8" standalone="no"?>
<!-- Created with Inkscape (http://www.inkscape.org/) -->

<svg
   width="23.931684mm"
   height="23.931684mm"
   viewBox="0 0 23.931684 23.931685"
   version="1.1"
   id="svg5"
   inkscape:version="1.1 (c4e8f9e, 2021-05-24)"
   sodipodi:docname="JTM_icon.svg"
   xmlns:inkscape="http://www.inkscape.org/namespaces/inkscape"
   xmlns:sodipodi="http://sodipodi.sourceforge.net/DTD/sodipodi-0.dtd"
   xmlns="http://www.w3.org/2000/svg"
   xmlns:svg="http://www.w3.org/2000/svg">
  <sodipodi:namedview
     id="namedview7"
     pagecolor="#505050"
     bordercolor="#ffffff"
     borderopacity="1"
     inkscape:pageshadow="0"
     inkscape:pageopacity="0"
     inkscape:pagecheckerboard="1"
     inkscape:document-units="mm"
     showgrid="false"
     inkscape:zoom="3.1496408"
     inkscape:cx="76.199165"
     inkscape:cy="74.611683"
     inkscape:window-width="1913"
     inkscape:window-height="984"
     inkscape:window-x="1606"
     inkscape:window-y="43"
     inkscape:window-maximized="0"
     inkscape:current-layer="layer1" />
  <defs
     id="defs2" />
  <g
     inkscape:label="Layer 1"
     inkscape:groupmode="layer"
     id="layer1"
     transform="translate(-48.053219,-162.80398)">
    <circle
       style="fill:#000000;fill-rule:evenodd;stroke:#a54a3b;stroke-width:0.491;stroke-miterlimit:4;stroke-dasharray:none;stroke-opacity:1"
       id="path2244"
       cx="60.019062"
       cy="174.76982"
       r="11.720343" />
    <circle
       style="fill:none;fill-opacity:1;fill-rule:evenodd;stroke:#a54a3b;stroke-width:0.292207;stroke-miterlimit:4;stroke-dasharray:none;stroke-opacity:1"
       id="path2244-1"
       cx="60.019062"
       cy="174.76982"
       r="9.8796434" />
    <g
       id="g2354"
       transform="matrix(0.72621522,0,0,0.72621522,11.441801,39.239322)">
      <g
         id="g2212"
         transform="translate(22.429145,0.16800857)">
        <path
           d="m 38.174847,183.49064 v 3.70416 q 0,0.48232 -0.04341,0.81994 -0.03859,0.33762 -0.183279,0.68488 -0.241157,0.5836 -0.795817,0.91157 -0.55466,0.32315 -1.350478,0.32315 -0.718647,0 -1.20096,-0.22668 -0.477491,-0.22669 -0.771702,-0.73312 -0.15434,-0.27009 -0.250803,-0.62218 -0.09646,-0.35209 -0.09646,-0.67042 0,-0.33762 0.188103,-0.51607 0.188102,-0.17846 0.482313,-0.17846 0.284565,0 0.429259,0.16399 0.144694,0.16398 0.221864,0.51125 0.08199,0.37138 0.163987,0.59324 0.08199,0.22187 0.274919,0.38103 0.192925,0.15917 0.549837,0.15917 0.950158,0 0.950158,-1.39389 v -3.91156 q 0,-0.43409 0.188102,-0.65113 0.192925,-0.21704 0.520898,-0.21704 0.332797,0 0.525722,0.21704 0.197749,0.21704 0.197749,0.65113 z"
           id="path942"
           style="font-size:9.87778px;line-height:1.25;font-family:'Arial Rounded MT Bold';-inkscape-font-specification:'Arial Rounded MT Bold, Normal';fill:#dde8ef;stroke-width:0.264583" />
        <path
           d="m 38.936001,183.84942 v 3.70416 q 0,0.48232 -0.04341,0.81994 -0.03859,0.33762 -0.18328,0.68488 -0.241156,0.5836 -0.795817,0.91157 -0.55466,0.32315 -1.350478,0.32315 -0.718647,0 -1.20096,-0.22668 -0.47749,-0.22669 -0.771702,-0.73312 -0.15434,-0.27009 -0.250803,-0.62218 -0.09646,-0.35209 -0.09646,-0.67042 0,-0.33762 0.188102,-0.51607 0.188102,-0.17846 0.482313,-0.17846 0.284565,0 0.429259,0.16399 0.144694,0.16398 0.221865,0.51125 0.08199,0.37138 0.163986,0.59324 0.08199,0.22187 0.274919,0.38103 0.192925,0.15916 0.549837,0.15916 0.950158,0 0.950158,-1.39388 v -3.91156 q 0,-0.43409 0.188102,-0.65113 0.192925,-0.21704 0.520899,-0.21704 0.332796,0 0.525721,0.21704 0.197749,0.21704 0.197749,0.65113 z"
           id="path965"
           style="font-size:9.87778px;line-height:1.25;font-family:'Arial Rounded MT Bold';-inkscape-font-specification:'Arial Rounded MT Bold, Normal';opacity:0.861728;fill:#dde8ef;stroke-width:0.264583" />
      </g>
      <path
         d="m 67.767343,184.03244 h -1.562696 v 5.13664 q 0,0.44373 -0.197748,0.66077 -0.197749,0.21221 -0.511252,0.21221 -0.318327,0 -0.520899,-0.21704 -0.197749,-0.21704 -0.197749,-0.65594 v -5.13664 h -1.562695 q -0.366558,0 -0.545014,-0.15916 -0.178456,-0.16399 -0.178456,-0.42926 0,-0.27492 0.183279,-0.43409 0.188102,-0.15916 0.540191,-0.15916 h 4.553039 q 0.371381,0 0.549837,0.16399 0.183279,0.16398 0.183279,0.42926 0,0.26527 -0.183279,0.42926 -0.183279,0.15916 -0.549837,0.15916 z"
         id="path950"
         style="font-size:9.87778px;line-height:1.25;font-family:'Arial Rounded MT Bold';-inkscape-font-specification:'Arial Rounded MT Bold, Normal';fill:#dde8ef;stroke-width:0.264583" />
      <path
         d="m 68.528497,184.39122 h -1.562695 v 5.13664 q 0,0.44373 -0.197749,0.66077 -0.197749,0.21221 -0.511252,0.21221 -0.318327,0 -0.520899,-0.21704 -0.197748,-0.21704 -0.197748,-0.65594 v -5.13664 h -1.562696 q -0.366558,0 -0.545014,-0.15916 -0.178456,-0.16399 -0.178456,-0.42926 0,-0.27492 0.183279,-0.43409 0.188102,-0.15916 0.540191,-0.15916 h 4.553039 q 0.371382,0 0.549838,0.16399 0.183279,0.16398 0.183279,0.42926 0,0.26527 -0.183279,0.42926 -0.18328,0.15916 -0.549838,0.15916 z"
         id="path973"
         style="font-size:9.87778px;line-height:1.25;font-family:'Arial Rounded MT Bold';-inkscape-font-specification:'Arial Rounded MT Bold, Normal';opacity:0.861728;fill:#dde8ef;stroke-width:0.264583" />
      <g
         id="g2220"
         transform="translate(-15.204776,0.10771857)">
        <path
           d="m 87.944774,188.74785 -1.133436,-4.5048 v 4.88101 q 0,0.40514 -0.183279,0.60771 -0.178456,0.20257 -0.477491,0.20257 -0.289388,0 -0.472667,-0.19774 -0.183279,-0.20258 -0.183279,-0.61254 v -5.59484 q 0,-0.46302 0.241157,-0.62218 0.241156,-0.16399 0.651123,-0.16399 h 0.443728 q 0.40032,0 0.578776,0.0724 0.18328,0.0723 0.270096,0.26045 0.08682,0.1881 0.197749,0.61254 l 1.027327,3.87297 1.027328,-3.87297 q 0.110932,-0.42444 0.197748,-0.61254 0.08682,-0.18811 0.265273,-0.26045 0.183279,-0.0724 0.583599,-0.0724 h 0.443729 q 0.409966,0 0.651123,0.16399 0.241157,0.15916 0.241157,0.62218 v 5.59484 q 0,0.40514 -0.18328,0.60771 -0.178456,0.20257 -0.482313,0.20257 -0.284565,0 -0.467844,-0.20257 -0.183279,-0.20257 -0.183279,-0.60771 v -4.88101 l -1.133437,4.5048 q -0.110932,0.43891 -0.183279,0.6463 -0.06752,0.20258 -0.255626,0.37139 -0.188102,0.1688 -0.520899,0.1688 -0.250803,0 -0.424436,-0.11093 -0.173632,-0.10611 -0.270095,-0.27492 -0.09646,-0.16881 -0.15434,-0.37138 -0.05306,-0.20739 -0.110933,-0.42926 z"
           id="path956"
           style="font-size:9.87778px;line-height:1.25;font-family:'Arial Rounded MT Bold';-inkscape-font-specification:'Arial Rounded MT Bold, Normal';fill:#dde8ef;stroke-width:0.264583" />
        <path
           d="m 88.705929,189.10663 -1.133437,-4.5048 v 4.88101 q 0,0.40514 -0.183279,0.60771 -0.178456,0.20257 -0.477491,0.20257 -0.289388,0 -0.472667,-0.19774 -0.183279,-0.20258 -0.183279,-0.61254 V 183.888 q 0,-0.46302 0.241157,-0.62218 0.241157,-0.16399 0.651123,-0.16399 h 0.443728 q 0.400321,0 0.578777,0.0724 0.183279,0.0723 0.270095,0.26045 0.08682,0.1881 0.197749,0.61254 l 1.027327,3.87297 1.027328,-3.87297 q 0.110932,-0.42444 0.197749,-0.61254 0.08682,-0.18811 0.265272,-0.26045 0.183279,-0.0724 0.583599,-0.0724 h 0.443729 q 0.409966,0 0.651123,0.16399 0.241157,0.15916 0.241157,0.62218 v 5.59484 q 0,0.40514 -0.183279,0.60771 -0.178456,0.20257 -0.482314,0.20257 -0.284565,0 -0.467844,-0.20257 -0.183279,-0.20257 -0.183279,-0.60771 v -4.88101 l -1.133437,4.5048 q -0.110932,0.43891 -0.183279,0.6463 -0.06752,0.20258 -0.255626,0.37139 -0.188102,0.1688 -0.520899,0.1688 -0.250803,0 -0.424435,-0.11093 -0.173633,-0.10611 -0.270096,-0.27492 -0.09646,-0.16881 -0.15434,-0.37138 -0.05306,-0.20739 -0.110932,-0.42926 z"
           id="path979"
           style="font-size:9.87778px;line-height:1.25;font-family:'Arial Rounded MT Bold';-inkscape-font-specification:'Arial Rounded MT Bold, Normal';opacity:0.861728;fill:#dde8ef;stroke-width:0.264583" />
      </g>
    </g>
  </g>
</svg>
