<?xml version="1.0" encoding="UTF-8" standalone="no"?>
<!-- Created with Inkscape (http://www.inkscape.org/) -->

<svg
   width="93.80629mm"
   height="21.533146mm"
   viewBox="0 0 93.806289 21.533146"
   version="1.1"
   id="svg5"
   inkscape:version="1.1 (c4e8f9e, 2021-05-24)"
   sodipodi:docname="JTM_logo.svg"
   xmlns:inkscape="http://www.inkscape.org/namespaces/inkscape"
   xmlns:sodipodi="http://sodipodi.sourceforge.net/DTD/sodipodi-0.dtd"
   xmlns="http://www.w3.org/2000/svg"
   xmlns:svg="http://www.w3.org/2000/svg">
  <sodipodi:namedview
     id="namedview7"
     pagecolor="#505050"
     bordercolor="#ffffff"
     borderopacity="1"
     inkscape:pageshadow="0"
     inkscape:pageopacity="0"
     inkscape:pagecheckerboard="1"
     inkscape:document-units="mm"
     showgrid="false"
     inkscape:zoom="1.5748204"
     inkscape:cx="117.79121"
     inkscape:cy="40.957051"
     inkscape:window-width="1440"
     inkscape:window-height="847"
     inkscape:window-x="2255"
     inkscape:window-y="128"
     inkscape:window-maximized="1"
     inkscape:current-layer="layer1" />
  <defs
     id="defs2" />
  <g
     inkscape:label="Layer 1"
     inkscape:groupmode="layer"
     id="layer1"
     transform="translate(-26.709617,-182.62247)">
    <g
       id="g5498"
       transform="translate(1.3810423)">
      <g
         aria-label="JOEY THE MONK"
         id="text1178-9-8"
         style="font-size:9.87778px;line-height:1.25;font-family:'Arial Rounded MT Bold';-inkscape-font-specification:'Arial Rounded MT Bold, Normal';opacity:1;fill:#dde8ef;stroke-width:0.264583">
        <path
           d="m 36.793805,183.49064 v 3.70416 q 0,0.48232 -0.04341,0.81994 -0.03859,0.33762 -0.183279,0.68488 -0.241157,0.5836 -0.795817,0.91157 -0.55466,0.32315 -1.350478,0.32315 -0.718647,0 -1.20096,-0.22668 -0.477491,-0.22669 -0.771702,-0.73312 -0.15434,-0.27009 -0.250803,-0.62218 -0.09646,-0.35209 -0.09646,-0.67042 0,-0.33762 0.188103,-0.51607 0.188102,-0.17846 0.482313,-0.17846 0.284565,0 0.429259,0.16399 0.144694,0.16398 0.221864,0.51125 0.08199,0.37138 0.163987,0.59324 0.08199,0.22187 0.274919,0.38103 0.192925,0.15917 0.549837,0.15917 0.950158,0 0.950158,-1.39389 v -3.91156 q 0,-0.43409 0.188102,-0.65113 0.192925,-0.21704 0.520898,-0.21704 0.332797,0 0.525722,0.21704 0.197749,0.21704 0.197749,0.65113 z"
           id="path942" />
        <path
           d="m 41.467422,182.62247 q 1.099675,0 1.885846,0.44855 0.790994,0.44373 1.196137,1.26849 0.405144,0.81993 0.405144,1.92925 0,0.81994 -0.221864,1.49035 -0.221865,0.67042 -0.665593,1.16238 -0.443728,0.49196 -1.090029,0.75241 -0.6463,0.26044 -1.480702,0.26044 -0.829579,0 -1.485525,-0.26527 -0.655947,-0.27009 -1.094852,-0.75723 -0.438905,-0.48714 -0.665593,-1.17202 -0.221864,-0.68489 -0.221864,-1.4807 0,-0.81511 0.231511,-1.49518 0.236333,-0.68006 0.680062,-1.15755 0.443728,-0.47749 1.080382,-0.72829 0.636654,-0.25563 1.44694,-0.25563 z m 2.035363,3.63665 q 0,-0.77653 -0.250803,-1.34566 -0.250803,-0.56913 -0.718647,-0.85852 -0.463021,-0.29421 -1.065913,-0.29421 -0.429259,0 -0.795817,0.16399 -0.361735,0.15916 -0.627007,0.46784 -0.26045,0.30868 -0.41479,0.791 -0.149517,0.47749 -0.149517,1.07556 0,0.60289 0.149517,1.09002 0.15434,0.48714 0.429259,0.81029 0.279742,0.31833 0.636654,0.47749 0.361735,0.15917 0.790994,0.15917 0.549837,0 1.008035,-0.27492 0.463021,-0.27492 0.733116,-0.84888 0.274919,-0.57395 0.274919,-1.41317 z"
           id="path944" />
        <path
           d="m 50.84842,183.84755 h -3.226677 v 1.73633 h 2.971051 q 0.327973,0 0.487136,0.14951 0.163987,0.1447 0.163987,0.38586 0,0.24115 -0.159164,0.39549 -0.159163,0.14952 -0.491959,0.14952 h -2.971051 v 2.01125 h 3.337609 q 0.337619,0 0.506429,0.15916 0.173633,0.15434 0.173633,0.41479 0,0.2508 -0.173633,0.40997 -0.16881,0.15434 -0.506429,0.15434 h -3.89227 q -0.467844,0 -0.675239,-0.2074 -0.202571,-0.20739 -0.202571,-0.67041 v -5.3151 q 0,-0.30868 0.09164,-0.5016 0.09164,-0.19775 0.284565,-0.28457 0.197749,-0.0916 0.501606,-0.0916 h 3.781338 q 0.342442,0 0.506429,0.15434 0.16881,0.14952 0.16881,0.3955 0,0.2508 -0.16881,0.40514 -0.163987,0.14952 -0.506429,0.14952 z"
           id="path946" />
        <path
           d="m 54.364484,189.06136 v -2.24276 l -1.726682,-2.67684 q -0.226688,-0.36174 -0.32315,-0.56431 -0.09164,-0.20257 -0.09164,-0.35209 0,-0.24598 0.188102,-0.42443 0.192926,-0.17846 0.472668,-0.17846 0.294211,0 0.443728,0.16881 0.15434,0.16399 0.458198,0.66077 l 1.321539,2.1463 1.336008,-2.1463 q 0.120578,-0.19775 0.202572,-0.33279 0.08199,-0.13505 0.178456,-0.25081 0.101286,-0.12058 0.221864,-0.18328 0.120578,-0.0627 0.294211,-0.0627 0.270096,0 0.448552,0.17846 0.183279,0.17363 0.183279,0.40514 0,0.1881 -0.09164,0.37621 -0.09164,0.1881 -0.313504,0.52089 l -1.77009,2.71543 v 2.24276 q 0,0.4389 -0.202572,0.65594 -0.202571,0.21704 -0.516075,0.21704 -0.318327,0 -0.516075,-0.21221 -0.197749,-0.21704 -0.197749,-0.66077 z"
           id="path948" />
        <path
           d="m 66.022002,183.92472 h -1.562696 v 5.13664 q 0,0.44373 -0.197748,0.66077 -0.197749,0.21221 -0.511252,0.21221 -0.318327,0 -0.520899,-0.21704 -0.197749,-0.21704 -0.197749,-0.65594 v -5.13664 h -1.562695 q -0.366558,0 -0.545014,-0.15916 -0.178456,-0.16399 -0.178456,-0.42926 0,-0.27492 0.183279,-0.43409 0.188102,-0.15916 0.540191,-0.15916 h 4.553039 q 0.371381,0 0.549837,0.16399 0.183279,0.16398 0.183279,0.42926 0,0.26527 -0.183279,0.42926 -0.183279,0.15916 -0.549837,0.15916 z"
           id="path950" />
        <path
           d="m 69.046106,183.49064 v 2.02571 h 3.091629 v -2.02571 q 0,-0.43409 0.192925,-0.65113 0.197749,-0.21704 0.516076,-0.21704 0.32315,0 0.520898,0.21704 0.202572,0.21222 0.202572,0.65113 v 5.57072 q 0,0.4389 -0.202572,0.65594 -0.202571,0.21704 -0.520898,0.21704 -0.32315,0 -0.516076,-0.21704 -0.192925,-0.22186 -0.192925,-0.65594 v -2.37781 h -3.091629 v 2.37781 q 0,0.4389 -0.202572,0.65594 -0.202572,0.21704 -0.520899,0.21704 -0.32315,0 -0.516075,-0.21704 -0.192925,-0.22186 -0.192925,-0.65594 v -5.57072 q 0,-0.43409 0.188102,-0.65113 0.192925,-0.21704 0.520898,-0.21704 0.32315,0 0.520899,0.21704 0.202572,0.21222 0.202572,0.65113 z"
           id="path952" />
        <path
           d="m 79.767935,183.84755 h -3.226677 v 1.73633 h 2.971051 q 0.327973,0 0.487137,0.14951 0.163986,0.1447 0.163986,0.38586 0,0.24115 -0.159163,0.39549 -0.159163,0.14952 -0.49196,0.14952 h -2.971051 v 2.01125 h 3.33761 q 0.337619,0 0.506429,0.15916 0.173633,0.15434 0.173633,0.41479 0,0.2508 -0.173633,0.40997 -0.16881,0.15434 -0.506429,0.15434 h -3.89227 q -0.467844,0 -0.675239,-0.2074 -0.202572,-0.20739 -0.202572,-0.67041 v -5.3151 q 0,-0.30868 0.09164,-0.5016 0.09164,-0.19775 0.284565,-0.28457 0.197748,-0.0916 0.501606,-0.0916 h 3.781337 q 0.342443,0 0.50643,0.15434 0.168809,0.14952 0.168809,0.3955 0,0.2508 -0.168809,0.40514 -0.163987,0.14952 -0.50643,0.14952 z"
           id="path954" />
        <path
           d="m 86.563732,188.74785 -1.133436,-4.5048 v 4.88101 q 0,0.40514 -0.183279,0.60771 -0.178456,0.20257 -0.477491,0.20257 -0.289388,0 -0.472667,-0.19774 -0.183279,-0.20258 -0.183279,-0.61254 v -5.59484 q 0,-0.46302 0.241157,-0.62218 0.241156,-0.16399 0.651123,-0.16399 h 0.443728 q 0.40032,0 0.578776,0.0724 0.18328,0.0723 0.270096,0.26045 0.08682,0.1881 0.197749,0.61254 l 1.027327,3.87297 1.027328,-3.87297 q 0.110932,-0.42444 0.197748,-0.61254 0.08682,-0.18811 0.265273,-0.26045 0.183279,-0.0724 0.583599,-0.0724 h 0.443729 q 0.409966,0 0.651123,0.16399 0.241157,0.15916 0.241157,0.62218 v 5.59484 q 0,0.40514 -0.18328,0.60771 -0.178456,0.20257 -0.482313,0.20257 -0.284565,0 -0.467844,-0.20257 -0.183279,-0.20257 -0.183279,-0.60771 v -4.88101 l -1.133437,4.5048 q -0.110932,0.43891 -0.183279,0.6463 -0.06752,0.20258 -0.255626,0.37139 -0.188102,0.1688 -0.520899,0.1688 -0.250803,0 -0.424436,-0.11093 -0.173632,-0.10611 -0.270095,-0.27492 -0.09646,-0.16881 -0.15434,-0.37138 -0.05306,-0.20739 -0.110933,-0.42926 z"
           id="path956" />
        <path
           d="m 95.525118,182.62247 q 1.099674,0 1.885845,0.44855 0.790994,0.44373 1.196138,1.26849 0.405143,0.81993 0.405143,1.92925 0,0.81994 -0.221864,1.49035 -0.221864,0.67042 -0.665593,1.16238 -0.443728,0.49196 -1.090028,0.75241 -0.6463,0.26044 -1.480703,0.26044 -0.829579,0 -1.485525,-0.26527 -0.655946,-0.27009 -1.094852,-0.75723 -0.438905,-0.48714 -0.665592,-1.17202 -0.221864,-0.68489 -0.221864,-1.4807 0,-0.81511 0.23151,-1.49518 0.236334,-0.68006 0.680062,-1.15755 0.443728,-0.47749 1.080382,-0.72829 0.636654,-0.25563 1.446941,-0.25563 z m 2.035363,3.63665 q 0,-0.77653 -0.250803,-1.34566 -0.250803,-0.56913 -0.718648,-0.85852 -0.46302,-0.29421 -1.065912,-0.29421 -0.429259,0 -0.795818,0.16399 -0.361735,0.15916 -0.627007,0.46784 -0.260449,0.30868 -0.41479,0.791 -0.149517,0.47749 -0.149517,1.07556 0,0.60289 0.149517,1.09002 0.154341,0.48714 0.429259,0.81029 0.279742,0.31833 0.636654,0.47749 0.361735,0.15917 0.790994,0.15917 0.549838,0 1.008035,-0.27492 0.463021,-0.27492 0.733117,-0.84888 0.274919,-0.57395 0.274919,-1.41317 z"
           id="path958" />
        <path
           d="m 102.11352,183.48099 2.75401,4.16719 v -4.20577 q 0,-0.40997 0.17363,-0.61254 0.17846,-0.2074 0.47749,-0.2074 0.30868,0 0.48714,0.2074 0.17845,0.20257 0.17845,0.61254 v 5.56107 q 0,0.93086 -0.7717,0.93086 -0.19292,0 -0.34727,-0.0579 -0.15434,-0.0531 -0.28938,-0.17364 -0.13505,-0.12057 -0.25081,-0.27974 -0.11575,-0.16398 -0.23151,-0.33279 l -2.68648,-4.11896 v 4.14307 q 0,0.40515 -0.18811,0.61254 -0.1881,0.20739 -0.48231,0.20739 -0.30386,0 -0.48714,-0.20739 -0.18327,-0.21222 -0.18327,-0.61254 v -5.45496 q 0,-0.34727 0.0772,-0.54502 0.0916,-0.21704 0.30385,-0.35209 0.21222,-0.13987 0.4582,-0.13987 0.19293,0 0.32797,0.0627 0.13988,0.0627 0.24116,0.16881 0.10611,0.10611 0.21222,0.27492 0.11093,0.16881 0.22669,0.35209 z"
           id="path960" />
        <path
           d="m 109.19388,183.49064 v 2.47909 l 2.81189,-2.93247 q 0.20257,-0.21222 0.34244,-0.3135 0.14469,-0.10129 0.38103,-0.10129 0.30868,0 0.49678,0.18328 0.19293,0.17846 0.19293,0.43891 0,0.3135 -0.32315,0.62218 l -1.74116,1.64951 2.00643,2.87459 q 0.21222,0.29904 0.31832,0.52572 0.10611,0.22187 0.10611,0.43409 0,0.23633 -0.1881,0.40996 -0.18328,0.17363 -0.5016,0.17363 -0.29904,0 -0.48714,-0.1254 -0.1881,-0.13022 -0.31833,-0.34244 -0.13022,-0.21222 -0.23151,-0.38585 l -1.69292,-2.60449 -1.17202,1.12379 v 1.46141 q 0,0.44373 -0.20257,0.66077 -0.20257,0.21221 -0.5209,0.21221 -0.18328,0 -0.35209,-0.0965 -0.16881,-0.0965 -0.26045,-0.26045 -0.0675,-0.13504 -0.082,-0.3135 -0.0145,-0.17846 -0.0145,-0.51608 v -5.25721 q 0,-0.43409 0.1881,-0.65113 0.19293,-0.21704 0.5209,-0.21704 0.32315,0 0.5209,0.21704 0.20257,0.21222 0.20257,0.65113 z"
           id="path962" />
      </g>
      <g
         aria-label="JOEY THE MONK"
         id="text1178-9"
         style="font-size:9.87778px;line-height:1.25;font-family:'Arial Rounded MT Bold';-inkscape-font-specification:'Arial Rounded MT Bold, Normal';opacity:0.861728;fill:#dde8ef;stroke-width:0.264583">
        <path
           d="m 37.554959,183.84942 v 3.70416 q 0,0.48232 -0.04341,0.81994 -0.03859,0.33762 -0.18328,0.68488 -0.241156,0.5836 -0.795817,0.91157 -0.55466,0.32315 -1.350478,0.32315 -0.718647,0 -1.20096,-0.22668 -0.47749,-0.22669 -0.771702,-0.73312 -0.15434,-0.27009 -0.250803,-0.62218 -0.09646,-0.35209 -0.09646,-0.67042 0,-0.33762 0.188102,-0.51607 0.188102,-0.17846 0.482313,-0.17846 0.284565,0 0.429259,0.16399 0.144694,0.16398 0.221865,0.51125 0.08199,0.37138 0.163986,0.59324 0.08199,0.22187 0.274919,0.38103 0.192925,0.15916 0.549837,0.15916 0.950158,0 0.950158,-1.39388 v -3.91156 q 0,-0.43409 0.188102,-0.65113 0.192925,-0.21704 0.520899,-0.21704 0.332796,0 0.525721,0.21704 0.197749,0.21704 0.197749,0.65113 z"
           id="path965" />
        <path
           d="m 42.228576,182.98125 q 1.099675,0 1.885846,0.44855 0.790994,0.44373 1.196138,1.26849 0.405143,0.81993 0.405143,1.92925 0,0.81994 -0.221864,1.49035 -0.221865,0.67042 -0.665593,1.16238 -0.443728,0.49196 -1.090028,0.75241 -0.6463,0.26044 -1.480703,0.26044 -0.829579,0 -1.485525,-0.26527 -0.655947,-0.27009 -1.094852,-0.75723 -0.438905,-0.48714 -0.665592,-1.17202 -0.221865,-0.68489 -0.221865,-1.4807 0,-0.81511 0.231511,-1.49518 0.236333,-0.68006 0.680062,-1.15755 0.443728,-0.47749 1.080382,-0.72829 0.636654,-0.25563 1.44694,-0.25563 z m 2.035363,3.63665 q 0,-0.77653 -0.250803,-1.34566 -0.250803,-0.56913 -0.718647,-0.85852 -0.463021,-0.29421 -1.065913,-0.29421 -0.429259,0 -0.795817,0.16399 -0.361735,0.15916 -0.627007,0.46784 -0.26045,0.30868 -0.41479,0.791 -0.149517,0.47749 -0.149517,1.07556 0,0.60289 0.149517,1.09002 0.15434,0.48714 0.429259,0.81029 0.279742,0.31833 0.636654,0.47749 0.361735,0.15916 0.790994,0.15916 0.549837,0 1.008035,-0.27491 0.463021,-0.27492 0.733117,-0.84888 0.274918,-0.57395 0.274918,-1.41317 z"
           id="path967" />
        <path
           d="m 51.609574,184.20633 h -3.226677 v 1.73633 h 2.971051 q 0.327973,0 0.487136,0.14951 0.163987,0.1447 0.163987,0.38586 0,0.24115 -0.159163,0.39549 -0.159164,0.14952 -0.49196,0.14952 h -2.971051 v 2.01125 h 3.337609 q 0.33762,0 0.506429,0.15916 0.173633,0.15434 0.173633,0.41479 0,0.2508 -0.173633,0.40997 -0.168809,0.15434 -0.506429,0.15434 h -3.89227 q -0.467844,0 -0.675238,-0.2074 -0.202572,-0.20739 -0.202572,-0.67041 v -5.3151 q 0,-0.30868 0.09164,-0.5016 0.09164,-0.19775 0.284565,-0.28457 0.197749,-0.0916 0.501606,-0.0916 h 3.781338 q 0.342443,0 0.506429,0.15434 0.16881,0.14952 0.16881,0.3955 0,0.2508 -0.16881,0.40514 -0.163986,0.14952 -0.506429,0.14952 z"
           id="path969" />
        <path
           d="m 55.125638,189.42014 v -2.24276 l -1.726682,-2.67684 q -0.226687,-0.36174 -0.32315,-0.56431 -0.09164,-0.20257 -0.09164,-0.35209 0,-0.24598 0.188103,-0.42443 0.192925,-0.17846 0.472667,-0.17846 0.294211,0 0.443728,0.16881 0.154341,0.16399 0.458198,0.66077 l 1.321539,2.1463 1.336008,-2.1463 q 0.120579,-0.19775 0.202572,-0.33279 0.08199,-0.13505 0.178456,-0.25081 0.101286,-0.12058 0.221864,-0.18328 0.120578,-0.0627 0.294211,-0.0627 0.270096,0 0.448552,0.17846 0.183279,0.17363 0.183279,0.40514 0,0.1881 -0.09164,0.37621 -0.09164,0.1881 -0.313503,0.52089 l -1.770091,2.71543 v 2.24276 q 0,0.4389 -0.202571,0.65594 -0.202572,0.21704 -0.516076,0.21704 -0.318327,0 -0.516075,-0.21221 -0.197749,-0.21704 -0.197749,-0.66077 z"
           id="path971" />
        <path
           d="m 66.783156,184.2835 h -1.562695 v 5.13664 q 0,0.44373 -0.197749,0.66077 -0.197749,0.21221 -0.511252,0.21221 -0.318327,0 -0.520899,-0.21704 -0.197748,-0.21704 -0.197748,-0.65594 v -5.13664 h -1.562696 q -0.366558,0 -0.545014,-0.15916 -0.178456,-0.16399 -0.178456,-0.42926 0,-0.27492 0.183279,-0.43409 0.188102,-0.15916 0.540191,-0.15916 h 4.553039 q 0.371382,0 0.549838,0.16399 0.183279,0.16398 0.183279,0.42926 0,0.26527 -0.183279,0.42926 -0.18328,0.15916 -0.549838,0.15916 z"
           id="path973" />
        <path
           d="m 69.80726,183.84942 v 2.02571 h 3.091629 v -2.02571 q 0,-0.43409 0.192926,-0.65113 0.197748,-0.21704 0.516075,-0.21704 0.32315,0 0.520899,0.21704 0.202571,0.21222 0.202571,0.65113 v 5.57072 q 0,0.4389 -0.202571,0.65594 -0.202572,0.21704 -0.520899,0.21704 -0.32315,0 -0.516075,-0.21704 -0.192926,-0.22186 -0.192926,-0.65594 v -2.37781 H 69.80726 v 2.37781 q 0,0.4389 -0.202572,0.65594 -0.202571,0.21704 -0.520898,0.21704 -0.32315,0 -0.516076,-0.21704 -0.192925,-0.22186 -0.192925,-0.65594 v -5.57072 q 0,-0.43409 0.188102,-0.65113 0.192925,-0.21704 0.520899,-0.21704 0.32315,0 0.520898,0.21704 0.202572,0.21222 0.202572,0.65113 z"
           id="path975" />
        <path
           d="m 80.52909,184.20633 h -3.226678 v 1.73633 h 2.971051 q 0.327974,0 0.487137,0.14951 0.163987,0.1447 0.163987,0.38586 0,0.24115 -0.159164,0.39549 -0.159163,0.14952 -0.49196,0.14952 h -2.971051 v 2.01125 h 3.33761 q 0.337619,0 0.506429,0.15916 0.173633,0.15434 0.173633,0.41479 0,0.2508 -0.173633,0.40997 -0.16881,0.15434 -0.506429,0.15434 h -3.89227 q -0.467844,0 -0.675239,-0.2074 -0.202572,-0.20739 -0.202572,-0.67041 v -5.3151 q 0,-0.30868 0.09164,-0.5016 0.09164,-0.19775 0.284565,-0.28457 0.197748,-0.0916 0.501606,-0.0916 h 3.781338 q 0.342442,0 0.506429,0.15434 0.168809,0.14952 0.168809,0.3955 0,0.2508 -0.168809,0.40514 -0.163987,0.14952 -0.506429,0.14952 z"
           id="path977" />
        <path
           d="m 87.324887,189.10663 -1.133437,-4.5048 v 4.88101 q 0,0.40514 -0.183279,0.60771 -0.178456,0.20257 -0.477491,0.20257 -0.289388,0 -0.472667,-0.19774 -0.183279,-0.20258 -0.183279,-0.61254 V 183.888 q 0,-0.46302 0.241157,-0.62218 0.241157,-0.16399 0.651123,-0.16399 h 0.443728 q 0.400321,0 0.578777,0.0724 0.183279,0.0723 0.270095,0.26045 0.08682,0.1881 0.197749,0.61254 l 1.027327,3.87297 1.027328,-3.87297 q 0.110932,-0.42444 0.197749,-0.61254 0.08682,-0.18811 0.265272,-0.26045 0.183279,-0.0724 0.583599,-0.0724 h 0.443729 q 0.409966,0 0.651123,0.16399 0.241157,0.15916 0.241157,0.62218 v 5.59484 q 0,0.40514 -0.183279,0.60771 -0.178456,0.20257 -0.482314,0.20257 -0.284565,0 -0.467844,-0.20257 -0.183279,-0.20257 -0.183279,-0.60771 v -4.88101 l -1.133437,4.5048 q -0.110932,0.43891 -0.183279,0.6463 -0.06752,0.20258 -0.255626,0.37139 -0.188102,0.1688 -0.520899,0.1688 -0.250803,0 -0.424435,-0.11093 -0.173633,-0.10611 -0.270096,-0.27492 -0.09646,-0.16881 -0.15434,-0.37138 -0.05306,-0.20739 -0.110932,-0.42926 z"
           id="path979" />
        <path
           d="m 96.286272,182.98125 q 1.099675,0 1.885846,0.44855 0.790994,0.44373 1.196137,1.26849 0.405143,0.81993 0.405143,1.92925 0,0.81994 -0.221864,1.49035 -0.221864,0.67042 -0.665593,1.16238 -0.443728,0.49196 -1.090028,0.75241 -0.6463,0.26044 -1.480702,0.26044 -0.82958,0 -1.485526,-0.26527 -0.655946,-0.27009 -1.094851,-0.75723 -0.438906,-0.48714 -0.665593,-1.17202 -0.221864,-0.68489 -0.221864,-1.4807 0,-0.81511 0.23151,-1.49518 0.236334,-0.68006 0.680062,-1.15755 0.443729,-0.47749 1.080382,-0.72829 0.636654,-0.25563 1.446941,-0.25563 z m 2.035363,3.63665 q 0,-0.77653 -0.250803,-1.34566 -0.250803,-0.56913 -0.718647,-0.85852 -0.463021,-0.29421 -1.065913,-0.29421 -0.429259,0 -0.795817,0.16399 -0.361735,0.15916 -0.627008,0.46784 -0.260449,0.30868 -0.414789,0.791 -0.149518,0.47749 -0.149518,1.07556 0,0.60289 0.149518,1.09002 0.15434,0.48714 0.429259,0.81029 0.279741,0.31833 0.636653,0.47749 0.361735,0.15916 0.790994,0.15916 0.549838,0 1.008036,-0.27491 0.46302,-0.27492 0.733116,-0.84888 0.274919,-0.57395 0.274919,-1.41317 z"
           id="path981" />
        <path
           d="m 102.87467,183.83977 2.75401,4.16719 v -4.20577 q 0,-0.40997 0.17363,-0.61254 0.17846,-0.2074 0.47749,-0.2074 0.30868,0 0.48714,0.2074 0.17846,0.20257 0.17846,0.61254 v 5.56107 q 0,0.93086 -0.77171,0.93086 -0.19292,0 -0.34726,-0.0579 -0.15434,-0.0531 -0.28939,-0.17364 -0.13505,-0.12057 -0.2508,-0.27974 -0.11576,-0.16398 -0.23151,-0.33279 l -2.68649,-4.11896 v 4.14307 q 0,0.40515 -0.1881,0.61254 -0.1881,0.20739 -0.48231,0.20739 -0.30386,0 -0.48714,-0.20739 -0.18328,-0.21222 -0.18328,-0.61254 v -5.45496 q 0,-0.34727 0.0772,-0.54502 0.0916,-0.21704 0.30386,-0.35209 0.21222,-0.13987 0.4582,-0.13987 0.19292,0 0.32797,0.0627 0.13987,0.0627 0.24116,0.16881 0.1061,0.10611 0.21221,0.27492 0.11094,0.16881 0.22669,0.35209 z"
           id="path983" />
        <path
           d="m 109.95503,183.84942 v 2.47909 l 2.81189,-2.93247 q 0.20257,-0.21222 0.34244,-0.3135 0.1447,-0.10129 0.38103,-0.10129 0.30868,0 0.49678,0.18328 0.19293,0.17846 0.19293,0.43891 0,0.3135 -0.32315,0.62218 l -1.74115,1.64951 2.00642,2.87459 q 0.21222,0.29904 0.31833,0.52572 0.10611,0.22187 0.10611,0.43409 0,0.23633 -0.1881,0.40996 -0.18328,0.17363 -0.50161,0.17363 -0.29903,0 -0.48714,-0.1254 -0.1881,-0.13022 -0.31832,-0.34244 -0.13023,-0.21222 -0.23151,-0.38585 l -1.69292,-2.60449 -1.17203,1.12379 v 1.46141 q 0,0.44373 -0.20257,0.66077 -0.20257,0.21221 -0.5209,0.21221 -0.18328,0 -0.35209,-0.0965 -0.16881,-0.0965 -0.26044,-0.26045 -0.0675,-0.13504 -0.082,-0.3135 -0.0145,-0.17846 -0.0145,-0.51608 v -5.25721 q 0,-0.43409 0.1881,-0.65113 0.19293,-0.21704 0.5209,-0.21704 0.32315,0 0.5209,0.21704 0.20257,0.21222 0.20257,0.65113 z"
           id="path985" />
      </g>
    </g>
    <path
       style="fill:none;stroke:#a54a3b;stroke-width:0.657391;stroke-linecap:butt;stroke-linejoin:miter;stroke-miterlimit:4;stroke-dasharray:none;stroke-opacity:1"
       d="M 26.709617,195.43794 H 120.51591"
       id="path5259" />
    <g
       id="g14231"
       transform="translate(2.9802309,-0.67203429)">
      <g
         aria-label="Director"
         id="text1178-9-8-1"
         style="font-size:4.93889px;line-height:1.25;font-family:'Arial Rounded MT Bold';-inkscape-font-specification:'Arial Rounded MT Bold, Normal';fill:#dde8ef;stroke-width:0.264583">
        <path
           d="m 32.838342,201.21754 h 0.933276 q 0.364147,0 0.624596,0.0675 0.260449,0.0675 0.472667,0.25321 0.552249,0.47267 0.552249,1.43729 0,0.31833 -0.05547,0.58119 -0.05547,0.26286 -0.171221,0.47508 -0.115755,0.20981 -0.296623,0.37621 -0.142282,0.12781 -0.311092,0.20498 -0.16881,0.0772 -0.364147,0.10852 -0.192925,0.0314 -0.436493,0.0314 h -0.933277 q -0.195337,0 -0.294211,-0.0579 -0.09887,-0.0603 -0.130225,-0.1664 -0.02894,-0.10852 -0.02894,-0.27974 v -2.59243 q 0,-0.23151 0.103698,-0.33521 0.103697,-0.1037 0.335208,-0.1037 z m 0.27733,0.56672 v 2.39951 h 0.542602 q 0.178456,0 0.279742,-0.01 0.101286,-0.01 0.209807,-0.0482 0.10852,-0.0386 0.188102,-0.10852 0.359323,-0.30386 0.359323,-1.04662 0,-0.52331 -0.159163,-0.78376 -0.156752,-0.26045 -0.388262,-0.33038 -0.231511,-0.0724 -0.559484,-0.0724 z"
           id="path988" />
        <path
           d="m 36.663087,202.51014 v 1.90273 q 0,0.19775 -0.09405,0.29903 -0.09405,0.10129 -0.238745,0.10129 -0.144694,0 -0.236333,-0.1037 -0.08923,-0.1037 -0.08923,-0.29662 v -1.88344 q 0,-0.19533 0.08923,-0.29421 0.09164,-0.0989 0.236333,-0.0989 0.144694,0 0.238745,0.0989 0.09405,0.0989 0.09405,0.27492 z m -0.325561,-0.68006 q -0.137459,0 -0.236334,-0.0844 -0.09646,-0.0844 -0.09646,-0.23874 0,-0.13987 0.09887,-0.2291 0.101286,-0.0916 0.233922,-0.0916 0.127813,0 0.226687,0.082 0.09887,0.082 0.09887,0.23875 0,0.15193 -0.09646,0.23874 -0.09646,0.0844 -0.229099,0.0844 z"
           id="path990" />
        <path
           d="m 37.999096,203.86303 v 0.54984 q 0,0.20016 -0.09405,0.30144 -0.09405,0.0989 -0.238745,0.0989 -0.142283,0 -0.233922,-0.10129 -0.09164,-0.10128 -0.09164,-0.29903 v -1.83279 q 0,-0.44373 0.320739,-0.44373 0.163986,0 0.236333,0.1037 0.07235,0.10369 0.07958,0.30627 0.118167,-0.20258 0.241157,-0.30627 0.125401,-0.1037 0.332796,-0.1037 0.207395,0 0.402732,0.1037 0.195337,0.10369 0.195337,0.27491 0,0.12058 -0.0844,0.20016 -0.08199,0.0772 -0.178456,0.0772 -0.03617,0 -0.176045,-0.0434 -0.137459,-0.0458 -0.243568,-0.0458 -0.144694,0 -0.236333,0.0772 -0.09164,0.0748 -0.142283,0.22427 -0.05064,0.14952 -0.06994,0.35691 -0.01929,0.20499 -0.01929,0.50161 z"
           id="path992" />
        <path
           d="M 41.224567,203.63634 H 39.93679 q 0.0024,0.22428 0.08923,0.3955 0.08923,0.17122 0.233922,0.25804 0.147106,0.0868 0.32315,0.0868 0.118167,0 0.21463,-0.0265 0.09887,-0.0289 0.190513,-0.0868 0.09164,-0.0603 0.16881,-0.12781 0.07717,-0.0675 0.20016,-0.18328 0.05064,-0.0434 0.144694,-0.0434 0.101286,0 0.163987,0.0555 0.0627,0.0555 0.0627,0.15675 0,0.0892 -0.06994,0.2098 -0.06993,0.11817 -0.212218,0.2291 -0.139871,0.10852 -0.3545,0.18087 -0.212218,0.0724 -0.489548,0.0724 -0.634243,0 -0.986331,-0.36174 -0.352089,-0.36173 -0.352089,-0.9815 0,-0.2918 0.08682,-0.5402 0.08682,-0.2508 0.253215,-0.42925 0.166398,-0.17846 0.409966,-0.27251 0.243569,-0.0965 0.540191,-0.0965 0.385851,0 0.66077,0.16398 0.27733,0.16158 0.414789,0.41961 0.13746,0.25804 0.13746,0.52573 0,0.24839 -0.142283,0.32315 -0.142282,0.0723 -0.40032,0.0723 z m -1.287777,-0.37379 h 1.193726 q -0.02412,-0.33762 -0.183279,-0.50402 -0.156752,-0.16881 -0.41479,-0.16881 -0.24598,0 -0.405143,0.17122 -0.156752,0.16881 -0.190514,0.50161 z"
           id="path994" />
        <path
           d="m 44.683961,203.99808 q 0,0.12299 -0.07476,0.26286 -0.07235,0.13987 -0.224275,0.26768 -0.149518,0.1254 -0.378616,0.20258 -0.229099,0.0772 -0.516076,0.0772 -0.610126,0 -0.952569,-0.35451 -0.342443,-0.35691 -0.342443,-0.95498 0,-0.40514 0.156752,-0.71623 0.156752,-0.31109 0.453375,-0.4799 0.296623,-0.17122 0.709001,-0.17122 0.255626,0 0.467844,0.0747 0.214629,0.0748 0.361735,0.19293 0.149517,0.11817 0.226687,0.25321 0.07958,0.13264 0.07958,0.2484 0,0.11816 -0.08923,0.20016 -0.08682,0.082 -0.212218,0.082 -0.08199,0 -0.137459,-0.041 -0.05306,-0.0434 -0.120579,-0.13746 -0.120578,-0.18328 -0.253214,-0.27492 -0.130225,-0.0916 -0.332796,-0.0916 -0.2918,0 -0.470256,0.2291 -0.178456,0.22669 -0.178456,0.62219 0,0.18569 0.04582,0.34244 0.04582,0.15434 0.132636,0.26527 0.08682,0.10852 0.209806,0.1664 0.12299,0.0555 0.270096,0.0555 0.197748,0 0.337619,-0.0916 0.142283,-0.0916 0.250803,-0.27974 0.06029,-0.11094 0.130225,-0.17364 0.06994,-0.0627 0.171221,-0.0627 0.120579,0 0.20016,0.0916 0.07958,0.0916 0.07958,0.19534 z"
           id="path996" />
        <path
           d="m 45.291676,202.19423 h 0.07235 v -0.3955 q 0,-0.15916 0.0072,-0.24839 0.0096,-0.0916 0.04823,-0.15675 0.03859,-0.0675 0.110932,-0.10852 0.07235,-0.0434 0.161575,-0.0434 0.125401,0 0.226687,0.0941 0.06752,0.0627 0.0844,0.15434 0.01929,0.0892 0.01929,0.25562 v 0.44856 h 0.241156 q 0.139871,0 0.212218,0.0675 0.07476,0.0651 0.07476,0.16881 0,0.13264 -0.106109,0.18569 -0.103698,0.053 -0.299035,0.053 h -0.122989 v 1.21061 q 0,0.15434 0.0096,0.23875 0.01206,0.082 0.05788,0.13504 0.04823,0.0506 0.154341,0.0506 0.05788,0 0.156752,-0.0193 0.09887,-0.0217 0.15434,-0.0217 0.07958,0 0.142282,0.0651 0.06511,0.0627 0.06511,0.15676 0,0.15916 -0.173633,0.24356 -0.173633,0.0844 -0.499195,0.0844 -0.30868,0 -0.467844,-0.1037 -0.159163,-0.1037 -0.209806,-0.28698 -0.04823,-0.18327 -0.04823,-0.48954 v -1.26367 h -0.08682 q -0.142282,0 -0.217041,-0.0675 -0.07476,-0.0675 -0.07476,-0.17122 0,-0.1037 0.07717,-0.16881 0.07958,-0.0675 0.229099,-0.0675 z"
           id="path998" />
        <path
           d="m 49.466098,203.47477 q 0,0.29421 -0.09164,0.5426 -0.09164,0.24839 -0.265272,0.42685 -0.173633,0.17845 -0.41479,0.27492 -0.241157,0.094 -0.542603,0.094 -0.299034,0 -0.537779,-0.0965 -0.238745,-0.0965 -0.41479,-0.27492 -0.173633,-0.18087 -0.265272,-0.42444 -0.08923,-0.24598 -0.08923,-0.5426 0,-0.29904 0.09164,-0.54743 0.09164,-0.24839 0.262861,-0.42443 0.171221,-0.17605 0.41479,-0.2701 0.243568,-0.0965 0.537779,-0.0965 0.299035,0 0.542603,0.0965 0.243568,0.0965 0.417201,0.27492 0.173633,0.17846 0.262861,0.42444 0.09164,0.24598 0.09164,0.5426 z m -0.660769,0 q 0,-0.40273 -0.178456,-0.62701 -0.176044,-0.22427 -0.475079,-0.22427 -0.192925,0 -0.340031,0.10128 -0.147105,0.0989 -0.226687,0.29421 -0.07958,0.19534 -0.07958,0.45579 0,0.25804 0.07717,0.45096 0.07958,0.19293 0.224276,0.29662 0.147106,0.10129 0.344854,0.10129 0.299035,0 0.475079,-0.22428 0.178456,-0.22668 0.178456,-0.62459 z"
           id="path1000" />
        <path
           d="m 50.635709,203.86303 v 0.54984 q 0,0.20016 -0.09405,0.30144 -0.09405,0.0989 -0.238745,0.0989 -0.142283,0 -0.233922,-0.10129 -0.09164,-0.10128 -0.09164,-0.29903 v -1.83279 q 0,-0.44373 0.320739,-0.44373 0.163986,0 0.236333,0.1037 0.07235,0.10369 0.07958,0.30627 0.118167,-0.20258 0.241157,-0.30627 0.125401,-0.1037 0.332796,-0.1037 0.207395,0 0.402732,0.1037 0.195337,0.10369 0.195337,0.27491 0,0.12058 -0.0844,0.20016 -0.08199,0.0772 -0.178456,0.0772 -0.03617,0 -0.176045,-0.0434 -0.137459,-0.0458 -0.243568,-0.0458 -0.144694,0 -0.236334,0.0772 -0.09164,0.0748 -0.142282,0.22427 -0.05064,0.14952 -0.06993,0.35691 -0.01929,0.20499 -0.01929,0.50161 z"
           id="path1002" />
      </g>
      <g
         aria-label="Editor"
         id="text1178-9-8-1-0"
         style="font-size:4.93889px;line-height:1.25;font-family:'Arial Rounded MT Bold';-inkscape-font-specification:'Arial Rounded MT Bold, Normal';fill:#dde8ef;stroke-width:0.264583">
        <path
           d="m 61.779321,201.78426 h -1.613339 v 0.86816 h 1.485526 q 0.163987,0 0.243568,0.0748 0.08199,0.0724 0.08199,0.19292 0,0.12058 -0.07958,0.19775 -0.07958,0.0748 -0.24598,0.0748 h -1.485526 v 1.00562 h 1.668805 q 0.16881,0 0.253215,0.0796 0.08682,0.0772 0.08682,0.20739 0,0.1254 -0.08682,0.20498 -0.08441,0.0772 -0.253215,0.0772 h -1.946135 q -0.233922,0 -0.337619,-0.10369 -0.101286,-0.1037 -0.101286,-0.33521 v -2.65755 q 0,-0.15434 0.04582,-0.2508 0.04582,-0.0989 0.142282,-0.14228 0.09887,-0.0458 0.250803,-0.0458 h 1.890669 q 0.171221,0 0.253215,0.0772 0.0844,0.0748 0.0844,0.19775 0,0.1254 -0.0844,0.20257 -0.08199,0.0748 -0.253215,0.0748 z"
           id="path1005" />
        <path
           d="m 64.506804,204.45145 v -0.0651 q -0.132637,0.15193 -0.262861,0.24839 -0.127813,0.0941 -0.279742,0.14228 -0.149517,0.0506 -0.327973,0.0506 -0.236334,0 -0.438905,-0.0989 -0.20016,-0.10129 -0.347266,-0.28698 -0.147106,-0.18569 -0.224276,-0.43649 -0.07476,-0.2508 -0.07476,-0.5426 0,-0.61736 0.301445,-0.96222 0.301446,-0.34485 0.793406,-0.34485 0.284565,0 0.479902,0.0989 0.195337,0.0965 0.381028,0.29904 v -0.97187 q 0,-0.20257 0.07958,-0.30627 0.08199,-0.10369 0.231511,-0.10369 0.149517,0 0.229099,0.0965 0.08199,0.0941 0.08199,0.27974 v 2.90353 q 0,0.1881 -0.08682,0.28215 -0.08682,0.0941 -0.224276,0.0941 -0.135048,0 -0.224276,-0.0965 -0.08682,-0.0989 -0.08682,-0.27974 z m -1.295012,-0.96704 q 0,0.26768 0.08199,0.45579 0.0844,0.1881 0.229099,0.28456 0.144694,0.0941 0.315916,0.0941 0.173632,0 0.315915,-0.0892 0.144694,-0.0916 0.229099,-0.27733 0.08682,-0.1881 0.08682,-0.46784 0,-0.26286 -0.08682,-0.45096 -0.08441,-0.19052 -0.231511,-0.28939 -0.144694,-0.10129 -0.318327,-0.10129 -0.180867,0 -0.32315,0.1037 -0.142282,0.10129 -0.221864,0.29421 -0.07717,0.19052 -0.07717,0.44373 z"
           id="path1007" />
        <path
           d="m 66.448115,202.52461 v 1.90272 q 0,0.19775 -0.09405,0.29904 -0.09405,0.10128 -0.238745,0.10128 -0.144694,0 -0.236333,-0.10369 -0.08923,-0.1037 -0.08923,-0.29663 v -1.88343 q 0,-0.19534 0.08923,-0.29421 0.09164,-0.0989 0.236333,-0.0989 0.144694,0 0.238745,0.0989 0.09405,0.0989 0.09405,0.27492 z m -0.325561,-0.68007 q -0.137459,0 -0.236334,-0.0844 -0.09646,-0.0844 -0.09646,-0.23875 0,-0.13987 0.09887,-0.22909 0.101286,-0.0916 0.233922,-0.0916 0.127813,0 0.226687,0.082 0.09887,0.082 0.09887,0.23874 0,0.15193 -0.09646,0.23875 -0.09646,0.0844 -0.229099,0.0844 z"
           id="path1009" />
        <path
           d="m 67.166762,202.20869 h 0.07235 v -0.3955 q 0,-0.15916 0.0072,-0.24839 0.0096,-0.0916 0.04823,-0.15675 0.03859,-0.0675 0.110933,-0.10852 0.07235,-0.0434 0.161575,-0.0434 0.125401,0 0.226687,0.094 0.06752,0.0627 0.08441,0.15434 0.01929,0.0892 0.01929,0.25563 v 0.44855 h 0.241157 q 0.139871,0 0.212218,0.0675 0.07476,0.0651 0.07476,0.16881 0,0.13263 -0.106109,0.18569 -0.103698,0.0531 -0.299035,0.0531 h -0.12299 v 1.21061 q 0,0.15434 0.0096,0.23874 0.01206,0.082 0.05788,0.13505 0.04823,0.0506 0.15434,0.0506 0.05788,0 0.156752,-0.0193 0.09888,-0.0217 0.154341,-0.0217 0.07958,0 0.142282,0.0651 0.06511,0.0627 0.06511,0.15675 0,0.15916 -0.173632,0.24357 -0.173633,0.0844 -0.499195,0.0844 -0.30868,0 -0.467844,-0.10369 -0.159163,-0.1037 -0.209806,-0.28698 -0.04823,-0.18328 -0.04823,-0.48955 v -1.26366 h -0.08682 q -0.142283,0 -0.217041,-0.0675 -0.07476,-0.0675 -0.07476,-0.17122 0,-0.1037 0.07717,-0.16881 0.07958,-0.0675 0.229099,-0.0675 z"
           id="path1011" />
        <path
           d="m 71.341186,203.48923 q 0,0.29422 -0.09164,0.54261 -0.09164,0.24839 -0.265273,0.42684 -0.173633,0.17846 -0.414789,0.27492 -0.241157,0.0941 -0.542603,0.0941 -0.299034,0 -0.53778,-0.0965 -0.238745,-0.0965 -0.414789,-0.27492 -0.173633,-0.18087 -0.265273,-0.42443 -0.08923,-0.24598 -0.08923,-0.54261 0,-0.29903 0.09164,-0.54742 0.09164,-0.24839 0.262861,-0.42444 0.171221,-0.17604 0.414789,-0.27009 0.243569,-0.0965 0.53778,-0.0965 0.299034,0 0.542603,0.0965 0.243568,0.0965 0.417201,0.27492 0.173633,0.17845 0.262861,0.42443 0.09164,0.24598 0.09164,0.5426 z m -0.660769,0 q 0,-0.40273 -0.178456,-0.627 -0.176045,-0.22428 -0.475079,-0.22428 -0.192925,0 -0.340031,0.10129 -0.147106,0.0989 -0.226687,0.29421 -0.07958,0.19533 -0.07958,0.45578 0,0.25804 0.07717,0.45097 0.07958,0.19292 0.224276,0.29662 0.147105,0.10129 0.344854,0.10129 0.299034,0 0.475079,-0.22428 0.178456,-0.22669 0.178456,-0.6246 z"
           id="path1013" />
        <path
           d="m 72.510796,203.8775 v 0.54983 q 0,0.20016 -0.09405,0.30145 -0.09405,0.0989 -0.238746,0.0989 -0.142282,0 -0.233922,-0.10128 -0.09164,-0.10129 -0.09164,-0.29904 v -1.83279 q 0,-0.44373 0.320738,-0.44373 0.163987,0 0.236334,0.1037 0.07235,0.1037 0.07958,0.30627 0.118166,-0.20257 0.241156,-0.30627 0.125402,-0.1037 0.332797,-0.1037 0.207395,0 0.402731,0.1037 0.195337,0.1037 0.195337,0.27492 0,0.12058 -0.0844,0.20016 -0.08199,0.0772 -0.178456,0.0772 -0.03617,0 -0.176045,-0.0434 -0.137459,-0.0458 -0.243568,-0.0458 -0.144694,0 -0.236334,0.0772 -0.09164,0.0748 -0.142282,0.22428 -0.05064,0.14952 -0.06994,0.35691 -0.01929,0.20498 -0.01929,0.50161 z"
           id="path1015" />
      </g>
      <g
         aria-label="Visual Artist"
         id="text1178-9-8-1-4"
         style="font-size:4.93889px;line-height:1.25;font-family:'Arial Rounded MT Bold';-inkscape-font-specification:'Arial Rounded MT Bold, Normal';fill:#dde8ef;stroke-width:0.264583">
        <path
           d="m 82.72588,201.64197 0.80064,2.37057 0.803052,-2.38745 q 0.0627,-0.1881 0.09405,-0.26045 0.03135,-0.0748 0.103698,-0.13263 0.07235,-0.0603 0.197748,-0.0603 0.09164,0 0.16881,0.0458 0.07958,0.0458 0.12299,0.12299 0.04582,0.0748 0.04582,0.15193 0,0.0531 -0.01447,0.11575 -0.01447,0.0603 -0.03617,0.12058 -0.0217,0.0579 -0.04341,0.12058 l -0.856107,2.31028 q -0.04582,0.13264 -0.09164,0.25321 -0.04582,0.11817 -0.106109,0.20981 -0.06029,0.0892 -0.161575,0.14711 -0.09888,0.0579 -0.243569,0.0579 -0.144694,0 -0.24598,-0.0579 -0.09887,-0.0555 -0.161575,-0.14711 -0.06029,-0.0941 -0.106108,-0.21222 -0.04582,-0.11816 -0.09164,-0.2508 l -0.841637,-2.29099 q -0.0217,-0.0627 -0.04582,-0.12299 -0.0217,-0.0603 -0.03858,-0.13022 -0.01447,-0.0699 -0.01447,-0.11817 0,-0.12299 0.09887,-0.22428 0.09887,-0.10128 0.248391,-0.10128 0.183279,0 0.258038,0.11334 0.07717,0.11093 0.156752,0.35691 z"
           id="path1018" />
        <path
           d="m 86.1491,202.52461 v 1.90272 q 0,0.19775 -0.09405,0.29904 -0.09405,0.10128 -0.238745,0.10128 -0.144694,0 -0.236334,-0.10369 -0.08923,-0.1037 -0.08923,-0.29663 v -1.88343 q 0,-0.19534 0.08923,-0.29421 0.09164,-0.0989 0.236334,-0.0989 0.144694,0 0.238745,0.0989 0.09405,0.0989 0.09405,0.27492 z m -0.325562,-0.68007 q -0.137459,0 -0.236333,-0.0844 -0.09646,-0.0844 -0.09646,-0.23875 0,-0.13987 0.09887,-0.22909 0.101286,-0.0916 0.233922,-0.0916 0.127813,0 0.226688,0.082 0.09887,0.082 0.09887,0.23874 0,0.15193 -0.09646,0.23875 -0.09646,0.0844 -0.229099,0.0844 z"
           id="path1020" />
        <path
           d="m 88.954958,203.96672 q 0,0.27251 -0.132636,0.46785 -0.132636,0.19292 -0.393085,0.29421 -0.258038,0.0989 -0.629419,0.0989 -0.354501,0 -0.607715,-0.10852 -0.253215,-0.10852 -0.373793,-0.27009 -0.120579,-0.16399 -0.120579,-0.32798 0,-0.10852 0.07717,-0.18569 0.07717,-0.0772 0.195337,-0.0772 0.103698,0 0.159164,0.0506 0.05547,0.0506 0.106109,0.14228 0.101286,0.17604 0.241157,0.26286 0.142282,0.0868 0.38585,0.0868 0.197749,0 0.32315,-0.0868 0.127813,-0.0892 0.127813,-0.20257 0,-0.17363 -0.132636,-0.25322 -0.130224,-0.0796 -0.43167,-0.15193 -0.340031,-0.0844 -0.554661,-0.17604 -0.212218,-0.094 -0.340031,-0.24598 -0.127813,-0.15193 -0.127813,-0.37379 0,-0.19775 0.118167,-0.3738 0.118167,-0.17604 0.347266,-0.27974 0.23151,-0.10611 0.557072,-0.10611 0.255626,0 0.458197,0.0531 0.204984,0.0531 0.340031,0.14228 0.13746,0.0892 0.207395,0.19775 0.07235,0.10852 0.07235,0.21222 0,0.11334 -0.07717,0.18569 -0.07476,0.0724 -0.214629,0.0724 -0.101286,0 -0.173633,-0.0579 -0.06994,-0.0579 -0.161575,-0.17364 -0.07476,-0.0965 -0.176045,-0.15434 -0.101285,-0.0579 -0.274918,-0.0579 -0.178456,0 -0.296623,0.0772 -0.118167,0.0748 -0.118167,0.1881 0,0.1037 0.08682,0.17122 0.08682,0.0651 0.233923,0.10852 0.147105,0.0434 0.405143,0.10611 0.306269,0.0748 0.499194,0.17846 0.195337,0.10369 0.294212,0.24598 0.101285,0.13987 0.101285,0.32073 z"
           id="path1022" />
        <path
           d="m 91.226655,204.45627 v -0.0844 q -0.118167,0.14951 -0.248392,0.2508 -0.130224,0.10129 -0.284564,0.14952 -0.154341,0.0506 -0.352089,0.0506 -0.238745,0 -0.429259,-0.0989 -0.188103,-0.0989 -0.2918,-0.27251 -0.12299,-0.20981 -0.12299,-0.60289 v -1.30466 q 0,-0.19775 0.08923,-0.29421 0.08923,-0.0989 0.236334,-0.0989 0.149517,0 0.241156,0.0989 0.09164,0.0989 0.09164,0.29421 v 1.05385 q 0,0.2291 0.03858,0.38586 0.03859,0.15434 0.137459,0.24356 0.101286,0.0868 0.272508,0.0868 0.166398,0 0.313503,-0.0989 0.147106,-0.0989 0.21463,-0.25804 0.05547,-0.13987 0.05547,-0.61254 v -0.80064 q 0,-0.19534 0.09164,-0.29421 0.09164,-0.0989 0.238746,-0.0989 0.147105,0 0.236333,0.0989 0.08923,0.0965 0.08923,0.29421 v 1.90755 q 0,0.1881 -0.08682,0.28215 -0.08441,0.0941 -0.219453,0.0941 -0.135048,0 -0.224276,-0.0965 -0.08682,-0.0989 -0.08682,-0.27492 z"
           id="path1024" />
        <path
           d="m 94.161533,204.45627 q -0.238745,0.18569 -0.463021,0.27974 -0.221864,0.0916 -0.499195,0.0916 -0.253214,0 -0.44614,-0.0989 -0.190513,-0.10129 -0.294211,-0.27251 -0.103697,-0.17122 -0.103697,-0.37138 0,-0.27009 0.171221,-0.46061 0.171221,-0.19051 0.470256,-0.25562 0.0627,-0.0145 0.311092,-0.0651 0.248391,-0.0506 0.424436,-0.0916 0.178456,-0.0434 0.385851,-0.10369 -0.01206,-0.26045 -0.106109,-0.38103 -0.09164,-0.12299 -0.38344,-0.12299 -0.250803,0 -0.378616,0.0699 -0.125401,0.0699 -0.217041,0.20981 -0.08923,0.13987 -0.127813,0.18569 -0.03617,0.0434 -0.159163,0.0434 -0.110932,0 -0.192926,-0.0699 -0.07958,-0.0723 -0.07958,-0.18328 0,-0.17363 0.12299,-0.33761 0.122989,-0.16399 0.383439,-0.2701 0.260449,-0.10611 0.648711,-0.10611 0.434083,0 0.682474,0.1037 0.248391,0.10128 0.349677,0.32315 0.103698,0.22186 0.103698,0.58842 0,0.23151 -0.0024,0.39309 0,0.16157 -0.0024,0.35932 0,0.18569 0.06029,0.38826 0.0627,0.20016 0.0627,0.25804 0,0.10129 -0.09646,0.18569 -0.09405,0.082 -0.21463,0.082 -0.101286,0 -0.20016,-0.0941 -0.09887,-0.0965 -0.209806,-0.27733 z m -0.04341,-0.95257 q -0.144694,0.0531 -0.422025,0.11335 -0.274918,0.0579 -0.381027,0.0868 -0.106109,0.0265 -0.202572,0.10852 -0.09646,0.0796 -0.09646,0.22428 0,0.14952 0.113344,0.25563 0.113344,0.10369 0.296623,0.10369 0.195337,0 0.359323,-0.0844 0.166398,-0.0868 0.243569,-0.22187 0.08923,-0.14951 0.08923,-0.49196 z"
           id="path1026" />
        <path
           d="m 95.430017,204.42733 v -2.85529 q 0,-0.19775 0.08682,-0.29904 0.08923,-0.10128 0.238745,-0.10128 0.149518,0 0.241157,0.10128 0.09164,0.0989 0.09164,0.29904 v 2.85529 q 0,0.20016 -0.09405,0.30145 -0.09164,0.0989 -0.238746,0.0989 -0.144694,0 -0.236333,-0.10369 -0.08923,-0.1037 -0.08923,-0.29663 z"
           id="path1028" />
        <path
           d="m 100.31344,204.36704 -0.16881,-0.44372 h -1.437293 l -0.16881,0.45337 q -0.09887,0.26527 -0.16881,0.35932 -0.06994,0.0916 -0.229098,0.0916 -0.135048,0 -0.238746,-0.0989 -0.103697,-0.0989 -0.103697,-0.22428 0,-0.0723 0.02412,-0.14951 0.02411,-0.0772 0.07958,-0.21463 l 0.904338,-2.29582 q 0.03858,-0.0989 0.09164,-0.23633 0.05547,-0.13987 0.115755,-0.23151 0.0627,-0.0916 0.161575,-0.1471 0.101286,-0.0579 0.248391,-0.0579 0.149518,0 0.248392,0.0579 0.101286,0.0555 0.161575,0.14469 0.0627,0.0892 0.103697,0.19292 0.04341,0.10129 0.108524,0.27251 l 0.92363,2.28134 q 0.10852,0.26045 0.10852,0.37862 0,0.12299 -0.1037,0.22669 -0.10129,0.10128 -0.24598,0.10128 -0.0844,0 -0.14469,-0.0314 -0.0603,-0.0289 -0.10129,-0.0796 -0.041,-0.0531 -0.0892,-0.15916 -0.0458,-0.10852 -0.0796,-0.19052 z m -1.418001,-0.9815 h 1.056267 l -0.532957,-1.459 z"
           id="path1030" />
        <path
           d="m 102.20893,203.8775 v 0.54983 q 0,0.20016 -0.094,0.30145 -0.094,0.0989 -0.23874,0.0989 -0.14229,0 -0.23393,-0.10128 -0.0916,-0.10129 -0.0916,-0.29904 v -1.83279 q 0,-0.44373 0.32074,-0.44373 0.16399,0 0.23634,0.1037 0.0723,0.1037 0.0796,0.30627 0.11816,-0.20257 0.24115,-0.30627 0.12541,-0.1037 0.3328,-0.1037 0.2074,0 0.40273,0.1037 0.19534,0.1037 0.19534,0.27492 0,0.12058 -0.0844,0.20016 -0.082,0.0772 -0.17845,0.0772 -0.0362,0 -0.17605,-0.0434 -0.13745,-0.0458 -0.24356,-0.0458 -0.1447,0 -0.23634,0.0772 -0.0916,0.0748 -0.14228,0.22428 -0.0506,0.14952 -0.0699,0.35691 -0.0193,0.20498 -0.0193,0.50161 z"
           id="path1032" />
        <path
           d="m 103.81142,202.20869 h 0.0724 v -0.3955 q 0,-0.15916 0.007,-0.24839 0.01,-0.0916 0.0482,-0.15675 0.0386,-0.0675 0.11093,-0.10852 0.0724,-0.0434 0.16158,-0.0434 0.1254,0 0.22669,0.094 0.0675,0.0627 0.0844,0.15434 0.0193,0.0892 0.0193,0.25563 v 0.44855 h 0.24116 q 0.13987,0 0.21222,0.0675 0.0748,0.0651 0.0748,0.16881 0,0.13263 -0.10611,0.18569 -0.1037,0.0531 -0.29904,0.0531 h -0.12299 v 1.21061 q 0,0.15434 0.01,0.23874 0.0121,0.082 0.0579,0.13505 0.0482,0.0506 0.15434,0.0506 0.0579,0 0.15675,-0.0193 0.0989,-0.0217 0.15434,-0.0217 0.0796,0 0.14228,0.0651 0.0651,0.0627 0.0651,0.15675 0,0.15916 -0.17364,0.24357 -0.17363,0.0844 -0.49919,0.0844 -0.30868,0 -0.46785,-0.10369 -0.15916,-0.1037 -0.2098,-0.28698 -0.0482,-0.18328 -0.0482,-0.48955 v -1.26366 h -0.0868 q -0.14228,0 -0.21704,-0.0675 -0.0748,-0.0675 -0.0748,-0.17122 0,-0.1037 0.0772,-0.16881 0.0796,-0.0675 0.2291,-0.0675 z"
           id="path1034" />
        <path
           d="m 106.17837,202.52461 v 1.90272 q 0,0.19775 -0.094,0.29904 -0.0941,0.10128 -0.23874,0.10128 -0.1447,0 -0.23634,-0.10369 -0.0892,-0.1037 -0.0892,-0.29663 v -1.88343 q 0,-0.19534 0.0892,-0.29421 0.0916,-0.0989 0.23634,-0.0989 0.14469,0 0.23874,0.0989 0.094,0.0989 0.094,0.27492 z m -0.32556,-0.68007 q -0.13746,0 -0.23633,-0.0844 -0.0965,-0.0844 -0.0965,-0.23875 0,-0.13987 0.0989,-0.22909 0.10128,-0.0916 0.23392,-0.0916 0.12781,0 0.22669,0.082 0.0989,0.082 0.0989,0.23874 0,0.15193 -0.0965,0.23875 -0.0965,0.0844 -0.2291,0.0844 z"
           id="path1036" />
        <path
           d="m 108.98061,203.96672 q 0,0.27251 -0.13263,0.46785 -0.13264,0.19292 -0.39309,0.29421 -0.25804,0.0989 -0.62942,0.0989 -0.3545,0 -0.60771,-0.10852 -0.25322,-0.10852 -0.3738,-0.27009 -0.12057,-0.16399 -0.12057,-0.32798 0,-0.10852 0.0772,-0.18569 0.0772,-0.0772 0.19533,-0.0772 0.1037,0 0.15917,0.0506 0.0555,0.0506 0.10611,0.14228 0.10128,0.17604 0.24115,0.26286 0.14229,0.0868 0.38585,0.0868 0.19775,0 0.32315,-0.0868 0.12782,-0.0892 0.12782,-0.20257 0,-0.17363 -0.13264,-0.25322 -0.13022,-0.0796 -0.43167,-0.15193 -0.34003,-0.0844 -0.55466,-0.17604 -0.21222,-0.094 -0.34003,-0.24598 -0.12781,-0.15193 -0.12781,-0.37379 0,-0.19775 0.11816,-0.3738 0.11817,-0.17604 0.34727,-0.27974 0.23151,-0.10611 0.55707,-0.10611 0.25563,0 0.4582,0.0531 0.20498,0.0531 0.34003,0.14228 0.13746,0.0892 0.20739,0.19775 0.0724,0.10852 0.0724,0.21222 0,0.11334 -0.0772,0.18569 -0.0748,0.0724 -0.21463,0.0724 -0.10128,0 -0.17363,-0.0579 -0.0699,-0.0579 -0.16158,-0.17364 -0.0748,-0.0965 -0.17604,-0.15434 -0.10129,-0.0579 -0.27492,-0.0579 -0.17846,0 -0.29662,0.0772 -0.11817,0.0748 -0.11817,0.1881 0,0.1037 0.0868,0.17122 0.0868,0.0651 0.23392,0.10852 0.1471,0.0434 0.40514,0.10611 0.30627,0.0748 0.4992,0.17846 0.19533,0.10369 0.29421,0.24598 0.10128,0.13987 0.10128,0.32073 z"
           id="path1038" />
        <path
           d="m 109.57868,202.20869 h 0.0724 v -0.3955 q 0,-0.15916 0.007,-0.24839 0.01,-0.0916 0.0482,-0.15675 0.0386,-0.0675 0.11093,-0.10852 0.0724,-0.0434 0.16157,-0.0434 0.1254,0 0.22669,0.094 0.0675,0.0627 0.0844,0.15434 0.0193,0.0892 0.0193,0.25563 v 0.44855 h 0.24115 q 0.13988,0 0.21222,0.0675 0.0748,0.0651 0.0748,0.16881 0,0.13263 -0.10611,0.18569 -0.1037,0.0531 -0.29903,0.0531 h -0.12299 v 1.21061 q 0,0.15434 0.01,0.23874 0.0121,0.082 0.0579,0.13505 0.0482,0.0506 0.15434,0.0506 0.0579,0 0.15675,-0.0193 0.0989,-0.0217 0.15434,-0.0217 0.0796,0 0.14229,0.0651 0.0651,0.0627 0.0651,0.15675 0,0.15916 -0.17363,0.24357 -0.17364,0.0844 -0.4992,0.0844 -0.30868,0 -0.46784,-0.10369 -0.15917,-0.1037 -0.20981,-0.28698 -0.0482,-0.18328 -0.0482,-0.48955 v -1.26366 h -0.0868 q -0.14228,0 -0.21704,-0.0675 -0.0748,-0.0675 -0.0748,-0.17122 0,-0.1037 0.0772,-0.16881 0.0796,-0.0675 0.2291,-0.0675 z"
           id="path1040" />
      </g>
      <path
         id="path10100"
         style="fill:#dde8ef;fill-rule:evenodd;stroke-width:0.240245"
         d="m 55.950215,202.99969 a 0.80000001,0.80000001 0 0 1 -0.8,0.8 0.80000001,0.80000001 0 0 1 -0.8,-0.8 0.80000001,0.80000001 0 0 1 0.8,-0.8 0.80000001,0.80000001 0 0 1 0.8,0.8 z" />
      <path
         id="path10100-2"
         style="fill:#dde8ef;fill-rule:evenodd;stroke-width:0.240245"
         d="m 78.663022,202.99969 a 0.80000001,0.80000001 0 0 1 -0.8,0.8 0.80000001,0.80000001 0 0 1 -0.8,-0.8 0.80000001,0.80000001 0 0 1 0.8,-0.8 0.80000001,0.80000001 0 0 1 0.8,0.8 z" />
    </g>
  </g>
</svg>
