<?xml version="1.0" encoding="UTF-8" standalone="no"?>
<!-- Created with Inkscape (http://www.inkscape.org/) -->

<svg
   width="13.231384mm"
   height="13.190789mm"
   viewBox="0 0 13.231384 13.190791"
   version="1.1"
   id="svg5"
   inkscape:version="1.1 (c4e8f9e, 2021-05-24)"
   sodipodi:docname="new_insta_icon.svg"
   xmlns:inkscape="http://www.inkscape.org/namespaces/inkscape"
   xmlns:sodipodi="http://sodipodi.sourceforge.net/DTD/sodipodi-0.dtd"
   xmlns="http://www.w3.org/2000/svg"
   xmlns:svg="http://www.w3.org/2000/svg">
  <sodipodi:namedview
     id="namedview7"
     pagecolor="#505050"
     bordercolor="#ffffff"
     borderopacity="1"
     inkscape:pageshadow="0"
     inkscape:pageopacity="0"
     inkscape:pagecheckerboard="1"
     inkscape:document-units="mm"
     showgrid="false"
     inkscape:zoom="17.817059"
     inkscape:cx="30.616725"
     inkscape:cy="15.911717"
     inkscape:window-width="1440"
     inkscape:window-height="847"
     inkscape:window-x="1554"
     inkscape:window-y="48"
     inkscape:window-maximized="0"
     inkscape:current-layer="layer1"
     inkscape:snap-global="false" />
  <defs
     id="defs2" />
  <g
     inkscape:label="Layer 1"
     inkscape:groupmode="layer"
     id="layer1"
     transform="translate(-48.363937,-213.12181)">
    <rect
       style="font-variation-settings:normal;opacity:1;fill:none;fill-opacity:1;fill-rule:evenodd;stroke:#a54a3b;stroke-width:1.18676;stroke-linecap:butt;stroke-linejoin:miter;stroke-miterlimit:4;stroke-dasharray:none;stroke-dashoffset:0;stroke-opacity:1;stop-color:#000000;stop-opacity:1"
       id="rect3007"
       width="11.569137"
       height="11.568789"
       x="48.957317"
       y="213.71519"
       ry="1.6117543" />
    <circle
       style="fill:none;fill-rule:evenodd;stroke:#a54a3b;stroke-width:1.065;stroke-miterlimit:4;stroke-dasharray:none;stroke-opacity:1"
       id="path8061"
       cx="54.741886"
       cy="219.49959"
       r="2.8561459" />
    <circle
       style="fill:none;fill-rule:evenodd;stroke:#a54a3b;stroke-width:1.065;stroke-miterlimit:4;stroke-dasharray:none;stroke-opacity:0.77999997"
       id="path8061-9"
       cx="55.105839"
       cy="219.95282"
       r="2.8561459" />
    <ellipse
       style="fill:#1e292a;fill-opacity:1;fill-rule:evenodd;stroke:#a54a3b;stroke-width:0.457362;stroke-opacity:0.78"
       id="path8201-1"
       cx="-67.440987"
       cy="213.15982"
       rx="0.67508507"
       ry="0.68618929"
       transform="rotate(-32.680623)" />
    <ellipse
       style="fill:#a54a3b;fill-opacity:1;fill-rule:evenodd;stroke:#a54a3b;stroke-width:0.437766;stroke-opacity:1"
       id="path8201"
       cx="58.262516"
       cy="215.71669"
       rx="0.65147036"
       ry="0.6514371" />
    <path
       style="fill:#a54a3b;fill-opacity:0.77999997;stroke:none;stroke-width:0.0551156;stroke-linecap:round;stroke-linejoin:round;stroke-opacity:0.56;paint-order:stroke fill markers"
       d="m 50.688203,226.2909 c -0.840132,-0.14179 -1.527832,-0.77283 -1.767775,-1.62211 l -0.06534,-0.23127 -0.0092,-4.26195 c -0.0059,-2.72479 0.0016,-4.37029 0.0208,-4.56233 0.09628,-0.96309 0.63696,-1.63702 1.561816,-1.94673 l 0.207517,-0.0695 h 4.6035 l 4.2768,-0.34155 0.2376,0.0834 c 0.739811,0.25965 1.596218,1.17599 1.789991,1.92938 0.04764,0.18523 0.05141,0.52978 0.05141,4.69943 v 4.49955 l -0.0834,0.2673 c -0.236346,0.75754 -0.773874,1.28412 -1.550104,1.51855 -0.168296,0.0508 -0.426611,0.0541 -4.64805,0.059 -2.482119,0.003 -4.539082,-0.007 -4.625534,-0.0211 z m 9.139935,-1.24733 c 0.206815,-0.0976 0.390694,-0.28169 0.496545,-0.49724 l 0.08261,-0.16821 v -4.4253 -4.4253 l -0.08338,-0.1782 c -0.105066,-0.22455 -0.325057,-0.43499 -0.54958,-0.52573 l -0.168941,-0.0683 -4.2471,-0.008 c -2.657054,-0.005 -4.317372,0.002 -4.434801,0.0206 -0.364321,0.0563 -0.650413,0.26693 -0.802195,0.59073 l -0.0793,0.16919 v 4.3956 c 0,4.17454 0.0027,4.4034 0.05407,4.55064 0.05949,0.17057 0.259475,0.4133 0.424628,0.51537 0.239974,0.14831 0.05739,0.14304 4.748504,0.13708 l 4.3956,-0.006 z"
       id="path2039"
       sodipodi:nodetypes="csccccccccsscscccccscccsccccccscsccc" />
  </g>
</svg>
