<?xml version="1.0" encoding="UTF-8" standalone="no"?>
<!-- Created with Inkscape (http://www.inkscape.org/) -->

<svg
   width="13.943178mm"
   height="11.677827mm"
   viewBox="0 0 13.943178 11.677827"
   version="1.1"
   id="svg5"
   inkscape:version="1.1 (c4e8f9e, 2021-05-24)"
   sodipodi:docname="phone.svg"
   xmlns:inkscape="http://www.inkscape.org/namespaces/inkscape"
   xmlns:sodipodi="http://sodipodi.sourceforge.net/DTD/sodipodi-0.dtd"
   xmlns="http://www.w3.org/2000/svg"
   xmlns:svg="http://www.w3.org/2000/svg">
  <sodipodi:namedview
     id="namedview7"
     pagecolor="#505050"
     bordercolor="#ffffff"
     borderopacity="1"
     inkscape:pageshadow="0"
     inkscape:pageopacity="0"
     inkscape:pagecheckerboard="1"
     inkscape:document-units="mm"
     showgrid="false"
     inkscape:zoom="2"
     inkscape:cx="125.75"
     inkscape:cy="87.500001"
     inkscape:window-width="1708"
     inkscape:window-height="926"
     inkscape:window-x="2626"
     inkscape:window-y="25"
     inkscape:window-maximized="0"
     inkscape:current-layer="layer1" />
  <defs
     id="defs2" />
  <g
     inkscape:label="Layer 1"
     inkscape:groupmode="layer"
     id="layer1"
     transform="translate(-198.44951,-56.505711)">
    <path
       style="opacity:1;fill:#a54a3b;fill-opacity:1;stroke:none;stroke-width:0.0634225;stroke-linecap:round;stroke-linejoin:round;stroke-miterlimit:4;stroke-dasharray:none;stroke-opacity:1;paint-order:stroke fill markers"
       d="m 155.52405,63.523664 c -1.08189,-0.166044 -2.08842,-0.733946 -3.41126,-1.924695 -0.21848,-0.196665 -0.44914,-0.402114 -0.51259,-0.456557 -0.20508,-0.175988 -0.19662,-0.191471 0.47122,-0.862724 0.77449,-0.778442 1.27258,-1.159076 1.97604,-1.510065 0.67914,-0.33886 1.27296,-0.472458 1.97918,-0.445275 0.93684,0.03606 1.73742,0.369962 2.67531,1.115825 0.55747,0.443333 1.38425,1.335204 1.41534,1.526767 0.0143,0.08839 -0.002,0.12224 -0.131,0.276686 -0.21594,0.257905 -0.9028,0.917482 -1.20405,1.156229 -0.98462,0.780341 -1.91311,1.150834 -2.85505,1.139251 -0.18089,-0.0021 -0.3623,-0.0092 -0.40314,-0.01545 z m 0.93715,-0.560776 c 0.83718,-0.145989 1.65083,-0.622837 2.60483,-1.526569 0.14308,-0.135536 0.29973,-0.296413 0.34812,-0.357508 l 0.088,-0.11108 -0.387,-0.404302 c -0.56831,-0.593725 -1.13011,-1.042468 -1.6116,-1.287269 -0.14667,-0.07457 -0.14993,-0.06459 -0.0307,0.0944 0.19382,0.258541 0.36787,0.797592 0.36787,1.139323 0,0.27759 -0.0819,0.6008 -0.22643,0.89358 -0.18134,0.367344 -0.47712,0.672197 -0.82792,0.853313 -0.36565,0.188782 -0.53694,0.230169 -0.9504,0.229629 -0.31207,-5.29e-4 -0.38592,-0.01072 -0.59372,-0.0829 -0.62191,-0.216027 -1.08062,-0.675961 -1.27955,-1.28297 -0.0757,-0.230944 -0.0869,-0.309401 -0.0869,-0.60679 0,-0.295389 0.0115,-0.376487 0.0847,-0.600054 0.0466,-0.142177 0.14351,-0.347975 0.21533,-0.45733 0.0718,-0.109352 0.13059,-0.20375 0.13059,-0.209769 0,-0.02622 -0.33495,0.161665 -0.594,0.333221 -0.39887,0.264144 -0.72531,0.533948 -1.16796,0.965298 l -0.38385,0.37406 0.15963,0.14759 c 1.27911,1.182619 2.27381,1.768522 3.26328,1.922166 0.1863,0.02893 0.63966,0.01548 0.87775,-0.02604 z m -1.59273,-2.437929 c 0.0494,-0.196077 0.16365,-0.408305 0.28546,-0.530114 0.11818,-0.118176 0.37402,-0.254444 0.58544,-0.311827 0.0776,-0.02106 0.14108,-0.04492 0.14108,-0.05303 0,-0.02315 -0.12524,-0.555763 -0.13275,-0.564547 -0.0176,-0.02056 -0.43962,0.130202 -0.62347,0.222729 -0.25171,0.12668 -0.53947,0.404532 -0.65497,0.632413 -0.0889,0.17531 -0.22953,0.566147 -0.21059,0.585086 0.0129,0.01291 0.48872,0.147291 0.54163,0.152971 0.0185,0.0019 0.0491,-0.05817 0.0682,-0.133683 z"
       id="path3263" />
    <path
       style="opacity:1;fill:#a54a3b;fill-opacity:1;stroke:none;stroke-width:0.0782596;stroke-linecap:round;stroke-linejoin:round;stroke-miterlimit:4;stroke-dasharray:none;stroke-opacity:1;paint-order:stroke fill markers"
       d="m 201.93626,68.176111 c -0.28638,-0.03808 -0.394,-0.161191 -0.56215,-0.358458 -1.11571,-1.303698 -0.43067,-3.45592 -0.86496,-4.623512 -0.0941,-0.06158 -0.57849,-0.09101 -1.01652,-0.125155 -0.53114,-0.06359 -0.74151,-0.21925 -0.97275,-0.576536 -0.0983,-0.880897 -0.0649,-1.254195 -0.0649,-2.346613 0.2725,-0.465981 0.72205,-0.636918 1.21241,-0.73983 0,0 0.45403,-0.07085 2.70893,-0.08947 2.36929,-0.01958 2.90553,-0.191379 3.34475,-0.282559 1.83538,-0.916512 3.05253,-1.464723 4.6256,-2.369606 0.14205,-0.109764 0.13367,-0.113446 0.35603,-0.158661 0.58053,0.05045 0.69963,0.245546 0.72568,0.514317 l 0.0183,1.58555 0.0183,1.585551 0.0916,0.163582 c 0.0832,0.148645 0.11832,0.173634 0.38481,0.273621 0.16124,0.06052 0.32088,0.143583 0.35473,0.18457 0.0805,0.09734 0.11675,0.369649 0.0853,0.639733 -0.0241,0.207596 -0.0295,0.216628 -0.14432,0.238148 -0.16159,0.03033 -0.68586,0.46815 -0.742,0.619709 -0.0302,0.08135 -0.0438,0.561555 -0.0457,1.602462 l -0.003,1.486296 -0.0916,0.124179 c -0.0504,0.0683 -0.0916,0.151576 -0.0916,0.185046 0,0.0671 -0.31445,0.281355 -0.3802,0.259072 -0.0227,-0.0077 -0.11552,-0.02197 -0.20618,-0.03172 -0.42044,-0.123079 -0.73061,-0.42824 -0.99896,-0.558869 -1.54524,-0.815923 -3.18254,-1.660367 -4.80976,-2.238984 -0.64239,-0.0626 -1.10185,-0.02988 -1.33092,0.09481 -0.0996,0.05427 -0.20264,0.138558 -0.22873,0.187318 -0.026,0.04876 -0.12564,0.160703 -0.22131,0.248794 -0.0956,0.08809 -0.21228,0.232168 -0.25924,0.320186 -0.1082,0.784449 -0.12966,1.991819 0.18649,2.725407 0.0567,0.06047 0.12181,0.165711 0.14449,0.233854 0.0246,0.07359 0.16683,0.247507 0.35052,0.428259 0.39066,0.338202 0.19836,0.453927 -0.009,0.764212 -0.12128,0.02848 -1.36171,0.05645 -1.56508,0.03532 z m 8.75854,-2.998345 c 0.24966,-0.10432 0.23858,0.07467 0.23858,-3.853242 0,-2.378782 -0.0122,-3.590176 -0.0394,-3.713926 -0.029,-0.135399 -0.0728,-0.212904 -0.16613,-0.294989 -0.18827,-0.165309 -0.18808,-0.108508 -0.51472,0.05357 -1.77127,0.905872 -3.65737,2.006282 -5.37278,2.490376 -0.25375,0.02811 -0.497,0.07019 -0.54054,0.0935 -0.0435,0.02331 -0.11046,0.111125 -0.1485,0.195161 -0.0623,0.137214 -0.0695,0.249973 -0.0701,1.105649 -9.3e-4,1.161845 0.003,1.178452 0.3473,1.264363 2.08582,0.569362 3.96426,1.689526 5.61374,2.479053 0.16735,0.219318 0.4035,0.284615 0.65278,0.180457 z"
       id="path3624"
       sodipodi:nodetypes="cccccccccccccccccccccccscccccccccccccccsccccccccccc" />
    <path
       style="opacity:1;fill:#a54a3b;fill-opacity:1;stroke:none;stroke-width:0.199758;stroke-linecap:round;stroke-linejoin:round;stroke-miterlimit:4;stroke-dasharray:none;stroke-opacity:1;paint-order:stroke fill markers"
       d="m 241.94342,81.983763 c -0.1029,-0.02711 -0.5703,-0.171231 -1.03866,-0.320266 -0.70766,-0.225179 -1.01198,-0.270973 -1.80073,-0.270973 -1.38745,0 -1.32368,0.113939 -1.3219,-2.361995 7.9e-4,-1.093299 0.0324,-2.034134 0.0702,-2.090743 0.15121,-0.226467 0.51386,-0.318023 1.25967,-0.318023 h 0.78229 l 0.32947,-0.350792 c 0.86566,-0.921663 1.12878,-1.326879 1.27346,-1.961158 0.24714,-1.083458 0.75183,-1.376062 1.61911,-0.938716 0.58789,0.296457 0.76636,0.676768 0.71333,1.520095 -0.0226,0.360146 -0.0718,0.749524 -0.10931,0.865286 -0.0664,0.205179 -0.0511,0.210474 0.60993,0.210474 0.78922,0 1.17578,0.183027 1.4459,0.684607 0.19604,0.364037 0.18485,0.51045 -0.21954,2.870078 -0.18557,1.082806 -0.5714,1.984848 -0.97705,2.284257 -0.22796,0.168264 -0.41194,0.196871 -1.35639,0.210915 -0.60096,0.0089 -1.17684,-0.0059 -1.27974,-0.03305 z m 2.44036,-0.80693 c 0.15601,-0.181454 0.22565,-0.376345 0.22565,-0.631425 0,-0.202928 0.0388,-0.368961 0.0863,-0.368961 0.11582,0 0.31705,-0.6255 0.24088,-0.748742 -0.0332,-0.05367 0.008,-0.276608 0.0916,-0.495409 0.10636,-0.278506 0.12658,-0.466321 0.0674,-0.626216 -0.0628,-0.169763 -0.0401,-0.301206 0.0885,-0.512021 0.29493,-0.48363 0.1972,-0.911102 -0.26453,-1.157017 -0.11799,-0.06285 -0.61915,-0.108824 -1.18616,-0.108824 h -0.98183 l 0.083,-0.257247 c 0.0457,-0.141485 0.17575,-0.509816 0.28907,-0.818513 0.32784,-0.893071 0.0746,-1.637025 -0.55724,-1.637025 -0.25717,0 -0.48179,0.273796 -0.48325,0.589053 -0.002,0.39198 -0.2786,0.914303 -0.86444,1.631357 -0.7557,0.924933 -0.96147,1.120729 -1.2652,1.203865 -0.21248,0.05816 -0.2125,0.05833 -0.18709,1.80147 l 0.0254,1.743307 0.23386,0.02843 c 0.12862,0.01564 0.54957,0.130588 0.93544,0.255444 1.11733,0.361532 1.39719,0.408402 2.32344,0.389119 0.83083,-0.0173 0.88451,-0.031 1.09914,-0.280648 z m -5.31212,-0.72776 c 0.0337,-0.290036 -0.18299,-0.497389 -0.43593,-0.41711 -0.21933,0.06961 -0.31902,0.291715 -0.24112,0.53717 0.0432,0.136098 0.12814,0.172329 0.35291,0.150525 0.23961,-0.02324 0.30138,-0.07481 0.32414,-0.270585 z"
       id="path10523" />
    <path
       style="opacity:1;fill:#a54a3b;fill-opacity:1;stroke:none;stroke-width:0.0408054;stroke-linecap:round;stroke-linejoin:round;stroke-miterlimit:4;stroke-dasharray:none;stroke-opacity:1;paint-order:stroke fill markers"
       d="m 244.2584,59.936522 c -0.01,0.0063 -0.03,0.123732 -0.046,0.262864 -0.0161,0.139059 -0.0478,0.342836 -0.0705,0.452695 -0.0229,0.109856 -0.0547,0.268244 -0.0708,0.351968 -0.0161,0.0837 -0.0531,0.2377 -0.0821,0.342153 -0.029,0.104387 -0.065,0.241231 -0.08,0.30397 -0.0145,0.06276 -0.0382,0.13096 -0.0518,0.151789 -0.0129,0.02067 -0.0315,0.07189 -0.04,0.113825 -0.008,0.04193 -0.0245,0.09738 -0.0357,0.123442 -0.0726,0.169517 -0.17756,0.471842 -0.17854,0.513925 -6.3e-4,0.02759 -0.0169,0.0703 -0.0363,0.09487 -0.0194,0.02457 -0.052,0.104661 -0.0724,0.177718 -0.0205,0.07312 -0.0505,0.152466 -0.0666,0.176159 -0.0284,0.04179 -0.1344,0.332374 -0.16086,0.440294 -0.006,0.02904 -0.0303,0.08516 -0.0516,0.124684 -0.0213,0.03953 -0.0392,0.08962 -0.0397,0.111244 -0.001,0.055 -0.0823,0.317555 -0.10648,0.345494 -0.0113,0.01259 -0.029,0.08551 -0.04,0.161975 -0.0113,0.07641 -0.0289,0.168786 -0.0395,0.205332 -0.0573,0.194094 -0.0689,0.394698 -0.10019,1.723064 -0.0182,0.776591 -0.0421,1.442311 -0.0544,1.522718 -0.0129,0.08893 -0.0368,0.162036 -0.0611,0.193713 -0.0216,0.02806 -0.0399,0.06928 -0.0403,0.09171 -0.002,0.07807 -0.0631,0.163218 -0.22347,0.310835 -0.20882,0.192105 -0.38473,0.278038 -0.61474,0.30033 -0.10358,0.01049 -1.24283,-0.01129 -3.20756,-0.05968 l -3.04691,-0.07533 -0.12278,-0.06271 c -0.0674,-0.03448 -0.15795,-0.06933 -0.20085,-0.07759 -0.0653,-0.01275 -0.096,-0.03595 -0.18865,-0.145093 -0.10649,-0.125604 -0.13795,-0.17019 -0.29514,-0.418888 l -0.072,-0.113825 0.0318,-1.516997 c 0.0315,-1.507013 0.0315,-1.517826 -0.008,-1.644135 -0.0215,-0.06989 -0.0386,-0.147594 -0.0381,-0.172398 5.8e-4,-0.02485 -0.01,-0.04558 -0.0237,-0.0459 -0.0129,-3.14e-4 -0.0432,-0.03328 -0.066,-0.07318 -0.0392,-0.06884 -0.1281,-0.162731 -0.44342,-0.468102 -0.0755,-0.07325 -0.16381,-0.163561 -0.19605,-0.200634 -0.0323,-0.03722 -0.0879,-0.09435 -0.12358,-0.127119 -0.0358,-0.03278 -0.0987,-0.09556 -0.14021,-0.139447 -0.0845,-0.09008 -0.22229,-0.204047 -0.24706,-0.204637 -0.01,-2.09e-4 -0.0542,-0.03869 -0.10035,-0.08575 -0.0462,-0.0469 -0.12052,-0.104935 -0.16499,-0.128733 -0.0941,-0.0506 -0.1402,-0.08893 -0.29241,-0.242804 -0.0611,-0.06194 -0.12569,-0.112809 -0.14327,-0.113213 -0.0176,-4.08e-4 -0.0476,-0.0187 -0.0665,-0.04059 -0.0189,-0.02189 -0.0757,-0.06178 -0.126,-0.08861 -0.0503,-0.02683 -0.12343,-0.07677 -0.16236,-0.110921 -0.0389,-0.0343 -0.11423,-0.07446 -0.16745,-0.08942 -0.0532,-0.0142 -0.14182,-0.05702 -0.1971,-0.09348 -0.0955,-0.06305 -0.31574,-0.174288 -0.34652,-0.175001 -0.008,-1.82e-4 -0.0534,-0.02948 -0.10116,-0.06528 -0.0478,-0.03564 -0.13359,-0.08572 -0.19085,-0.110921 -0.0573,-0.02538 -0.11665,-0.06079 -0.13198,-0.07875 -0.0394,-0.04593 -0.13262,-0.107 -0.14521,-0.09503 -0.0174,0.01654 -0.11648,-0.04579 -0.13681,-0.08596 -0.01,-0.02057 -0.0694,-0.06584 -0.13117,-0.100676 -0.17038,-0.09593 -0.42884,-0.374891 -0.51118,-0.551736 -0.0363,-0.07798 -0.0655,-0.162577 -0.065,-0.18803 0.001,-0.04806 -0.12149,-0.331243 -0.14859,-0.343052 -0.0213,-0.0086 -0.0145,-0.24014 0.008,-0.261978 0.01,-0.0095 0.0387,-0.116261 0.0641,-0.236495 0.0253,-0.120296 0.0534,-0.244374 0.0626,-0.275697 0.01,-0.03125 0.0266,-0.09104 0.0387,-0.132896 0.0129,-0.04167 0.0328,-0.13367 0.046,-0.204408 0.0129,-0.0707 0.0344,-0.15187 0.047,-0.180503 l 0.0229,-0.05208 0.0145,0.05761 c 0.0129,0.05258 0.0129,0.05147 0.008,-0.01436 -0.003,-0.04479 0.003,-0.07675 0.0186,-0.08559 0.0129,-0.0077 0.0607,-0.07767 0.10455,-0.155581 0.1672,-0.295885 0.21092,-0.360976 0.27528,-0.409935 0.0365,-0.02772 0.0666,-0.06108 0.0668,-0.07397 7.7e-4,-0.0334 0.18781,-0.205954 0.23943,-0.220946 0.0237,-0.0076 0.0784,-0.04014 0.12165,-0.07384 0.0978,-0.07633 0.27314,-0.158711 0.42445,-0.19951 0.0634,-0.01709 0.15069,-0.04606 0.19366,-0.06442 0.10406,-0.0444 0.32492,-0.05703 0.76454,-0.04397 0.32454,0.0092 0.37394,0.01517 0.46701,0.05486 0.0573,0.02423 0.17701,0.05316 0.26612,0.06426 0.0891,0.01178 0.18641,0.03369 0.21626,0.05019 0.0934,0.05187 0.13294,0.02147 0.15585,-0.119521 0.0237,-0.146304 0.0195,-0.01242 0.0608,-1.936487 0.0184,-0.861618 0.0421,-1.639471 0.0526,-1.728588 0.0257,-0.218969 0.18173,-0.603275 0.30774,-0.757724 0.0295,-0.03627 0.0647,-0.102758 0.0779,-0.147643 0.019,-0.0646 0.0361,-0.08567 0.0815,-0.100273 0.037,-0.0121 0.0716,-0.04498 0.0976,-0.09313 0.0221,-0.04113 0.0703,-0.0915 0.10697,-0.111938 0.0368,-0.02046 0.0671,-0.05107 0.0674,-0.06783 9.7e-4,-0.04193 0.0975,-0.134767 0.1273,-0.122457 0.0129,0.0052 0.0481,-0.0197 0.0771,-0.05598 0.029,-0.03629 0.0934,-0.08435 0.14295,-0.106759 0.0497,-0.02241 0.13375,-0.06694 0.18712,-0.09895 0.21048,-0.126168 0.31101,-0.168762 0.42466,-0.179704 0.0633,-0.0066 0.1708,-0.02251 0.23908,-0.03659 0.0682,-0.01452 0.24561,-0.02562 0.39405,-0.02591 0.24539,-7.79e-4 0.28787,0.005 0.46767,0.05665 0.13116,0.0379 0.23334,0.08109 0.30351,0.128702 0.0686,0.04645 0.13827,0.0763 0.19809,0.08495 0.0508,0.0076 0.10939,0.02948 0.13036,0.04918 0.021,0.01984 0.0855,0.06734 0.14344,0.105791 0.0581,0.03846 0.15537,0.121408 0.21631,0.184399 0.061,0.06305 0.13794,0.138107 0.17105,0.166793 0.0347,0.03017 0.0555,0.06358 0.0494,0.07877 -0.0129,0.03022 0.0539,0.10179 0.08,0.08641 0.029,-0.01709 0.0836,0.06778 0.12778,0.198971 0.0232,0.06896 0.0495,0.130089 0.0584,0.136107 0.0381,0.02541 0.12714,0.235849 0.16366,0.386942 0.0218,0.08991 0.0505,0.176545 0.0641,0.192625 0.0129,0.01646 0.0289,0.09379 0.0342,0.172811 0.005,0.07904 0.0113,0.169441 0.0145,0.20104 0.01,0.105436 -0.0221,1.41416 -0.0358,1.490742 -0.0161,0.08967 0.0224,0.202619 0.0847,0.248473 0.0281,0.02067 0.0849,0.03198 0.17124,0.03398 0.15247,0.0035 0.27483,0.03235 0.40476,0.09555 0.0519,0.02525 0.11584,0.05223 0.14198,0.06008 0.0261,0.0071 0.10277,0.04272 0.17023,0.07752 l 0.12278,0.06336 0.38207,0.0092 c 0.42792,0.01033 0.66696,0.03641 0.69818,0.07586 0.0113,0.01484 0.0368,0.02683 0.0562,0.02728 0.0194,4.5e-4 0.0802,0.02251 0.13504,0.04929 0.0549,0.02661 0.13246,0.05536 0.17247,0.0637 0.05,0.01081 0.10213,0.04497 0.16757,0.110551 0.0823,0.08259 0.17896,0.135187 0.25243,0.137204 0.0113,3.29e-4 0.0357,0.0176 0.0537,0.03853 0.04,0.04643 0.0689,0.05373 0.38104,0.09613 0.57027,0.07775 0.62396,0.08916 0.73516,0.15629 0.0579,0.03491 0.11971,0.06394 0.1373,0.06434 0.041,9.49e-4 0.16516,0.06805 0.26169,0.141447 0.0416,0.03162 0.0949,0.05787 0.11827,0.05842 0.024,5.57e-4 0.0553,0.02146 0.0718,0.04782 0.0161,0.0257 0.0532,0.05271 0.0828,0.05986 0.07,0.01776 0.41384,0.366795 0.46672,0.47471 0.022,0.04488 0.0579,0.100272 0.0799,0.123199 0.0219,0.02294 0.0565,0.08215 0.077,0.131363 0.0203,0.04937 0.065,0.125604 0.0992,0.169587 0.0418,0.05374 0.0618,0.09987 0.0608,0.141156 -0.001,0.05403 0.0432,0.199776 0.0897,0.293891 0.0187,0.03787 0.0499,0.233931 0.0582,0.366684 0.003,0.05058 0.0173,0.128702 0.0315,0.173667 0.0145,0.04503 0.0303,0.144012 0.0361,0.220139 0.006,0.07614 0.0177,0.143077 0.0268,0.148933 0.0213,0.01339 0.0171,0.194202 -0.005,0.207087 z m -1.11609,-0.610416 c -0.0129,-0.111018 -0.12488,-0.460961 -0.20548,-0.644945 -0.031,-0.0706 -0.10229,-0.159711 -0.25942,-0.324121 -0.14876,-0.155468 -0.16599,-0.17013 -0.20203,-0.170964 -0.0169,-3.91e-4 -0.062,-0.02015 -0.10019,-0.04379 -0.0431,-0.02681 -0.12101,-0.0496 -0.20518,-0.06026 -0.0747,-0.0098 -0.22578,-0.02943 -0.33581,-0.04472 -0.1818,-0.02519 -0.3065,-0.02614 -0.55419,-0.0047 -0.10939,0.01033 -0.16894,-0.02183 -0.21873,-0.1156 -0.0215,-0.04035 -0.072,-0.09656 -0.11213,-0.124765 -0.0403,-0.02836 -0.10487,-0.08086 -0.14343,-0.116939 -0.0386,-0.03591 -0.0795,-0.06558 -0.091,-0.06586 -0.0113,-2.65e-4 -0.0415,-0.01743 -0.0665,-0.03817 -0.0252,-0.02075 -0.0818,-0.04418 -0.12601,-0.05215 -0.0442,-0.0074 -0.1647,-0.03303 -0.26781,-0.05558 -0.22449,-0.04926 -0.43779,-0.05629 -0.59476,-0.02022 -0.28975,0.0677 -0.35655,0.06389 -0.45187,-0.02498 -0.0337,-0.03145 -0.10084,-0.07238 -0.14908,-0.09075 -0.0571,-0.02181 -0.10229,-0.05579 -0.12939,-0.0974 -0.0281,-0.04309 -0.061,-0.06726 -0.10132,-0.07417 -0.0329,-0.0056 -0.18022,-0.03209 -0.32746,-0.05841 -0.26303,-0.04724 -0.4686,-0.05119 -0.49573,-0.0098 -0.006,0.0095 -0.0518,0.01017 -0.10213,0.004 -0.0881,-0.01178 -0.20308,0.02063 -0.23522,0.06783 -0.01,0.01597 -0.0557,0.02857 -0.13327,0.03953 -0.0161,0.0029 -0.054,0.01323 -0.085,0.02612 -0.0308,0.01226 -0.0621,0.01501 -0.0692,0.0065 -0.0395,-0.04658 -0.04,-0.281506 -0.003,-1.486884 0.039,-1.280484 0.0384,-1.435006 -0.008,-1.763139 -0.005,-0.03417 -0.0328,-0.08951 -0.062,-0.122958 -0.0292,-0.03359 -0.0578,-0.08703 -0.0634,-0.118956 -0.0161,-0.08832 -0.23401,-0.341994 -0.3408,-0.395721 -0.0342,-0.01725 -0.062,-0.03953 -0.0618,-0.04951 2.3e-4,-0.0097 -0.01,-0.01844 -0.0205,-0.01872 -0.0113,-2.64e-4 -0.0426,-0.01841 -0.0691,-0.04017 -0.0474,-0.03919 -0.13924,-0.07149 -0.3477,-0.122619 -0.0813,-0.01996 -0.15602,-0.02233 -0.31799,-0.01065 -0.20006,0.01484 -0.23914,0.02578 -0.38978,0.108146 -0.0161,0.0094 -0.0637,0.02999 -0.10616,0.04742 -0.10487,0.04292 -0.22925,0.144948 -0.27906,0.228987 -0.0226,0.0382 -0.0753,0.09558 -0.11713,0.127523 -0.0923,0.07065 -0.16439,0.208481 -0.21555,0.411915 -0.0357,0.141511 -0.0426,0.32472 -0.10503,2.786807 -0.0368,1.449389 -0.0742,2.642244 -0.0833,2.650816 -0.01,0.0079 -0.0478,0.01988 -0.0863,0.02528 -0.0571,0.0084 -0.0952,-0.0039 -0.20708,-0.06612 -0.13601,-0.07528 -0.58047,-0.366907 -0.63712,-0.417972 -0.0163,-0.01484 -0.0471,-0.02707 -0.0684,-0.02757 -0.0213,-4.93e-4 -0.0682,-0.02191 -0.10406,-0.04743 -0.036,-0.02552 -0.0978,-0.05342 -0.13746,-0.06176 -0.0768,-0.01629 -0.12924,-0.04285 -0.18456,-0.09367 -0.08,-0.07334 -0.48551,-0.148901 -0.81404,-0.15166 -0.28328,-0.0018 -0.74722,0.08874 -0.74878,0.147013 -2.9e-4,0.01129 -0.0366,0.05321 -0.0807,0.09368 -0.044,0.04045 -0.0979,0.111986 -0.11972,0.158807 -0.0216,0.04679 -0.0555,0.101999 -0.0753,0.122522 -0.0197,0.02052 -0.0597,0.105613 -0.0889,0.189086 -0.0292,0.08341 -0.0705,0.197983 -0.0921,0.254567 -0.0308,0.08127 -0.0403,0.155451 -0.0452,0.352564 -0.005,0.227795 -0.002,0.255656 0.036,0.317985 0.0231,0.0375 0.0799,0.08883 0.12617,0.114116 0.0463,0.02512 0.12035,0.08041 0.16464,0.122748 0.0442,0.04234 0.096,0.07743 0.11488,0.07786 0.0189,4.37e-4 0.0582,0.0212 0.0873,0.04624 0.0292,0.02504 0.0828,0.05824 0.11923,0.07376 0.0365,0.01533 0.0813,0.04287 0.0999,0.06073 0.0186,0.01786 0.0694,0.0484 0.1131,0.06797 0.0437,0.01957 0.10632,0.04797 0.13908,0.06308 0.0327,0.01533 0.0676,0.0277 0.0773,0.02793 0.01,2.23e-4 0.037,0.02199 0.0605,0.04821 0.0376,0.04187 0.1173,0.07727 0.18295,0.08138 0.0113,6.93e-4 0.0749,0.04111 0.14036,0.08975 0.1473,0.109598 0.38846,0.269685 0.44688,0.296648 0.024,0.01178 0.0387,0.02785 0.0326,0.03722 -0.006,0.0095 0.006,0.01307 0.0273,0.0087 0.0211,-0.0044 0.0382,-1.47e-4 0.0381,0.01049 -5.9e-4,0.02533 0.11664,0.102112 0.15762,0.103064 0.0171,3.97e-4 0.0962,0.06678 0.17546,0.147368 0.0792,0.08075 0.15408,0.146868 0.16613,0.147159 0.0129,2.8e-4 0.0742,0.04932 0.13811,0.109066 0.0639,0.05973 0.14714,0.129766 0.18517,0.155661 0.0379,0.0259 0.13472,0.11318 0.21515,0.193732 0.0804,0.08062 0.16623,0.162486 0.19083,0.181823 0.0353,0.02777 0.0399,0.04079 0.0219,0.06136 -0.0184,0.02104 -0.0145,0.02499 0.0173,0.02041 0.0379,-0.0056 0.0661,0.01767 0.37744,0.307905 0.11939,0.111373 0.17011,0.173066 0.17486,0.212795 0.003,0.02184 0.0176,0.04092 0.0334,0.04242 0.0161,0.0014 0.0386,0.0042 0.0507,0.006 0.0129,0.0019 0.0395,0.04174 0.0608,0.0884 0.0271,0.0597 0.054,0.0892 0.09,0.09924 0.0678,0.01868 0.0957,0.04466 0.12455,0.116327 0.0129,0.03274 0.0399,0.07693 0.0592,0.09851 0.0529,0.05868 0.23536,0.449379 0.2806,0.600771 0.0311,0.104323 0.0394,0.18455 0.0382,0.371857 -7.9e-4,0.131348 0.005,0.270702 0.0113,0.309609 0.0253,0.144061 -0.24314,0.125265 2.9226,0.204631 1.56426,0.03942 2.87034,0.0777 2.90235,0.08732 0.0516,0.01404 0.0639,0.0095 0.10858,-0.04687 0.0482,-0.06037 0.0511,-0.07676 0.0695,-0.396652 0.0113,-0.183539 0.0279,-0.367904 0.0386,-0.409715 0.0113,-0.04187 0.0339,-0.140108 0.0516,-0.21861 0.0177,-0.07851 0.0411,-0.163916 0.0518,-0.189942 0.0113,-0.02606 0.0269,-0.102984 0.0361,-0.171184 0.01,-0.06805 0.0339,-0.161114 0.0548,-0.20664 0.021,-0.04551 0.0386,-0.09835 0.0391,-0.117391 4.3e-4,-0.01904 0.008,-0.03887 0.0168,-0.04416 0.008,-0.0047 0.0281,-0.05778 0.0427,-0.116826 0.0265,-0.106549 0.0512,-0.165091 0.12327,-0.292253 0.0206,-0.03632 0.0434,-0.09598 0.0507,-0.132606 0.008,-0.03662 0.0255,-0.100757 0.0403,-0.142383 0.0145,-0.04177 0.0391,-0.11852 0.0536,-0.17078 0.0145,-0.05227 0.0326,-0.103338 0.0403,-0.113809 0.008,-0.01113 0.02,-0.05327 0.0274,-0.09555 0.008,-0.04211 0.0397,-0.123183 0.0718,-0.179912 0.0321,-0.05671 0.0653,-0.141802 0.074,-0.188881 0.008,-0.04708 0.0281,-0.115391 0.0431,-0.151838 0.0145,-0.03645 0.0318,-0.0877 0.0371,-0.11389 0.005,-0.02618 0.0326,-0.111566 0.0603,-0.189744 0.0539,-0.151095 0.0883,-0.264032 0.10406,-0.34163 0.0203,-0.09942 0.0424,-0.161919 0.065,-0.183458 0.0129,-0.01259 0.031,-0.09369 0.0402,-0.180853 0.01,-0.08725 0.0257,-0.184497 0.0365,-0.216281 0.0113,-0.0317 0.0284,-0.10876 0.0389,-0.171136 0.0266,-0.157209 0.045,-0.888116 0.0263,-1.043318 z m -1.33964,7.233375 c -0.024,-0.02573 -0.0742,-0.07596 -0.11165,-0.11168 -0.0374,-0.03572 -0.0824,-0.09051 -0.10003,-0.121731 -0.0176,-0.03123 -0.0386,-0.05705 -0.0468,-0.05724 -0.008,-1.91e-4 -0.0145,-0.01162 -0.0145,-0.02631 4.2e-4,-0.01823 -0.0363,-0.02988 -0.12358,-0.03885 -0.0683,-0.0065 -0.13456,-0.02183 -0.14731,-0.03278 -0.0273,-0.02339 -0.25953,0.01033 -0.37116,0.05387 -0.10132,0.03961 -0.24138,0.167514 -0.30532,0.278891 -0.0462,0.08027 -0.0553,0.118311 -0.0581,0.240247 -0.005,0.222622 0.0237,0.349701 0.0978,0.429508 0.0345,0.03727 0.0626,0.07246 0.0624,0.07843 -5.5e-4,0.02356 0.1252,0.12733 0.18755,0.154596 0.19192,0.08417 0.26883,0.09676 0.41986,0.0691 0.19735,-0.03627 0.25442,-0.07626 0.40664,-0.28552 0.0263,-0.03619 0.055,-0.07054 0.0637,-0.07631 0.0223,-0.01404 0.0729,-0.27168 0.0789,-0.400181 0.005,-0.08835 -0.003,-0.115132 -0.0386,-0.153886 z"
       id="path10876" />
  </g>
</svg>
