<?xml version="1.0" encoding="UTF-8" standalone="no"?>
<!-- Created with Inkscape (http://www.inkscape.org/) -->

<svg
   width="12.612643mm"
   height="13.738008mm"
   viewBox="0 0 12.612643 13.738008"
   version="1.1"
   id="svg5"
   inkscape:version="1.1 (c4e8f9e, 2021-05-24)"
   sodipodi:docname="thumb.svg"
   xmlns:inkscape="http://www.inkscape.org/namespaces/inkscape"
   xmlns:sodipodi="http://sodipodi.sourceforge.net/DTD/sodipodi-0.dtd"
   xmlns="http://www.w3.org/2000/svg"
   xmlns:svg="http://www.w3.org/2000/svg">
  <sodipodi:namedview
     id="namedview7"
     pagecolor="#505050"
     bordercolor="#ffffff"
     borderopacity="1"
     inkscape:pageshadow="0"
     inkscape:pageopacity="0"
     inkscape:pagecheckerboard="1"
     inkscape:document-units="mm"
     showgrid="false"
     inkscape:zoom="2"
     inkscape:cx="124.75"
     inkscape:cy="85.000001"
     inkscape:window-width="1708"
     inkscape:window-height="926"
     inkscape:window-x="2626"
     inkscape:window-y="25"
     inkscape:window-maximized="0"
     inkscape:current-layer="layer1" />
  <defs
     id="defs2" />
  <g
     inkscape:label="Layer 1"
     inkscape:groupmode="layer"
     id="layer1"
     transform="translate(-198.62291,-57.168887)">
    <path
       style="opacity:1;fill:#a54a3b;fill-opacity:1;stroke:none;stroke-width:0.0634225;stroke-linecap:round;stroke-linejoin:round;stroke-miterlimit:4;stroke-dasharray:none;stroke-opacity:1;paint-order:stroke fill markers"
       d="m 155.52405,63.523664 c -1.08189,-0.166044 -2.08842,-0.733946 -3.41126,-1.924695 -0.21848,-0.196665 -0.44914,-0.402114 -0.51259,-0.456557 -0.20508,-0.175988 -0.19662,-0.191471 0.47122,-0.862724 0.77449,-0.778442 1.27258,-1.159076 1.97604,-1.510065 0.67914,-0.33886 1.27296,-0.472458 1.97918,-0.445275 0.93684,0.03606 1.73742,0.369962 2.67531,1.115825 0.55747,0.443333 1.38425,1.335204 1.41534,1.526767 0.0143,0.08839 -0.002,0.12224 -0.131,0.276686 -0.21594,0.257905 -0.9028,0.917482 -1.20405,1.156229 -0.98462,0.780341 -1.91311,1.150834 -2.85505,1.139251 -0.18089,-0.0021 -0.3623,-0.0092 -0.40314,-0.01545 z m 0.93715,-0.560776 c 0.83718,-0.145989 1.65083,-0.622837 2.60483,-1.526569 0.14308,-0.135536 0.29973,-0.296413 0.34812,-0.357508 l 0.088,-0.11108 -0.387,-0.404302 c -0.56831,-0.593725 -1.13011,-1.042468 -1.6116,-1.287269 -0.14667,-0.07457 -0.14993,-0.06459 -0.0307,0.0944 0.19382,0.258541 0.36787,0.797592 0.36787,1.139323 0,0.27759 -0.0819,0.6008 -0.22643,0.89358 -0.18134,0.367344 -0.47712,0.672197 -0.82792,0.853313 -0.36565,0.188782 -0.53694,0.230169 -0.9504,0.229629 -0.31207,-5.29e-4 -0.38592,-0.01072 -0.59372,-0.0829 -0.62191,-0.216027 -1.08062,-0.675961 -1.27955,-1.28297 -0.0757,-0.230944 -0.0869,-0.309401 -0.0869,-0.60679 0,-0.295389 0.0115,-0.376487 0.0847,-0.600054 0.0466,-0.142177 0.14351,-0.347975 0.21533,-0.45733 0.0718,-0.109352 0.13059,-0.20375 0.13059,-0.209769 0,-0.02622 -0.33495,0.161665 -0.594,0.333221 -0.39887,0.264144 -0.72531,0.533948 -1.16796,0.965298 l -0.38385,0.37406 0.15963,0.14759 c 1.27911,1.182619 2.27381,1.768522 3.26328,1.922166 0.1863,0.02893 0.63966,0.01548 0.87775,-0.02604 z m -1.59273,-2.437929 c 0.0494,-0.196077 0.16365,-0.408305 0.28546,-0.530114 0.11818,-0.118176 0.37402,-0.254444 0.58544,-0.311827 0.0776,-0.02106 0.14108,-0.04492 0.14108,-0.05303 0,-0.02315 -0.12524,-0.555763 -0.13275,-0.564547 -0.0176,-0.02056 -0.43962,0.130202 -0.62347,0.222729 -0.25171,0.12668 -0.53947,0.404532 -0.65497,0.632413 -0.0889,0.17531 -0.22953,0.566147 -0.21059,0.585086 0.0129,0.01291 0.48872,0.147291 0.54163,0.152971 0.0185,0.0019 0.0491,-0.05817 0.0682,-0.133683 z"
       id="path3263" />
    <path
       style="opacity:1;fill:#a54a3b;fill-opacity:1;stroke:none;stroke-width:0.0782596;stroke-linecap:round;stroke-linejoin:round;stroke-miterlimit:4;stroke-dasharray:none;stroke-opacity:1;paint-order:stroke fill markers"
       d="m 207.09564,97.280278 c -0.28638,-0.03808 -0.394,-0.161191 -0.56215,-0.358458 -1.11571,-1.303698 -0.43067,-3.45592 -0.86496,-4.623512 -0.0941,-0.06158 -0.57849,-0.09101 -1.01652,-0.125155 -0.53114,-0.06359 -0.74151,-0.21925 -0.97275,-0.576536 -0.0983,-0.880897 -0.0649,-1.254195 -0.0649,-2.346613 0.2725,-0.465981 0.72205,-0.636918 1.21241,-0.73983 0,0 0.45403,-0.07085 2.70893,-0.08947 2.36929,-0.01958 2.90553,-0.191379 3.34475,-0.282559 1.83538,-0.916512 3.05253,-1.464723 4.6256,-2.369606 0.14205,-0.109764 0.13367,-0.113446 0.35603,-0.158661 0.58053,0.05045 0.69963,0.245546 0.72568,0.514317 l 0.0183,1.58555 0.0183,1.585551 0.0916,0.163582 c 0.0832,0.148645 0.11832,0.173634 0.38481,0.273621 0.16124,0.06052 0.32088,0.143583 0.35473,0.18457 0.0805,0.09734 0.11675,0.369649 0.0853,0.639733 -0.0241,0.207596 -0.0295,0.216628 -0.14432,0.238148 -0.16159,0.03033 -0.68586,0.46815 -0.742,0.619709 -0.0302,0.08135 -0.0438,0.561555 -0.0457,1.602462 l -0.003,1.486296 -0.0916,0.124179 c -0.0504,0.0683 -0.0916,0.151576 -0.0916,0.185046 0,0.0671 -0.31445,0.281355 -0.3802,0.259072 -0.0227,-0.0077 -0.11552,-0.02197 -0.20618,-0.03172 -0.42044,-0.123079 -0.73061,-0.42824 -0.99896,-0.558869 -1.54524,-0.815923 -3.18254,-1.660367 -4.80976,-2.238984 -0.64239,-0.0626 -1.10185,-0.02988 -1.33092,0.09481 -0.0996,0.05427 -0.20264,0.138558 -0.22873,0.187318 -0.026,0.04876 -0.12564,0.160703 -0.22131,0.248794 -0.0956,0.08809 -0.21228,0.232168 -0.25924,0.320186 -0.1082,0.784449 -0.12966,1.991819 0.18649,2.725407 0.0567,0.06047 0.12181,0.165711 0.14449,0.233854 0.0246,0.07359 0.16683,0.247507 0.35052,0.428259 0.39066,0.338202 0.19836,0.453927 -0.009,0.764212 -0.12128,0.02848 -1.36171,0.05645 -1.56508,0.03532 z m 8.75854,-2.998345 c 0.24966,-0.10432 0.23858,0.07467 0.23858,-3.853242 0,-2.378782 -0.0122,-3.590176 -0.0394,-3.713926 -0.029,-0.135399 -0.0728,-0.212904 -0.16613,-0.294989 -0.18827,-0.165309 -0.18808,-0.108508 -0.51472,0.05357 -1.77127,0.905872 -3.65737,2.006282 -5.37278,2.490376 -0.25375,0.02811 -0.497,0.07019 -0.54054,0.0935 -0.0435,0.02331 -0.11046,0.111125 -0.1485,0.195161 -0.0623,0.137214 -0.0695,0.249973 -0.0701,1.105649 -9.3e-4,1.161845 0.003,1.178452 0.3473,1.264363 2.08582,0.569362 3.96426,1.689526 5.61374,2.479053 0.16735,0.219318 0.4035,0.284615 0.65278,0.180457 z"
       id="path3624"
       sodipodi:nodetypes="cccccccccccccccccccccccscccccccccccccccsccccccccccc" />
    <path
       style="opacity:1;fill:#a54a3b;fill-opacity:1;stroke:none;stroke-width:0.310326;stroke-linecap:round;stroke-linejoin:round;stroke-miterlimit:4;stroke-dasharray:none;stroke-opacity:1;paint-order:stroke fill markers"
       d="m 205.08889,70.851539 c -0.15986,-0.04211 -0.88597,-0.266008 -1.61357,-0.497535 -1.09935,-0.349818 -1.57212,-0.420959 -2.79745,-0.420959 -2.15541,0 -2.05634,0.177005 -2.05358,-3.669378 0.001,-1.698449 0.0503,-3.160044 0.10906,-3.247986 0.2349,-0.351819 0.79828,-0.494052 1.95691,-0.494052 h 1.21529 l 0.51183,-0.544958 c 1.34481,-1.431811 1.75357,-2.061317 1.97833,-3.046675 0.38394,-1.68316 1.16798,-2.137723 2.5153,-1.458302 0.9133,0.460548 1.19055,1.051364 1.10817,2.361479 -0.0351,0.55949 -0.11154,1.164392 -0.16982,1.344229 -0.10315,0.318747 -0.0794,0.326973 0.94754,0.326973 1.22605,0 1.82658,0.284334 2.24621,1.063543 0.30455,0.565534 0.28717,0.792988 -0.34105,4.458689 -0.28829,1.682148 -0.88768,3.083477 -1.51786,3.548611 -0.35414,0.2614 -0.63995,0.305841 -2.10716,0.327659 -0.9336,0.01383 -1.82823,-0.0092 -1.98809,-0.05134 z m 3.79112,-1.253572 c 0.24236,-0.28189 0.35055,-0.584655 0.35055,-0.980924 0,-0.31525 0.0603,-0.573184 0.13406,-0.573184 0.17993,0 0.49254,-0.971719 0.37421,-1.163176 -0.0516,-0.08338 0.0124,-0.429713 0.14231,-0.769622 0.16523,-0.432661 0.19664,-0.724434 0.1047,-0.972832 -0.0976,-0.263728 -0.0623,-0.467926 0.13749,-0.795428 0.45817,-0.751324 0.30635,-1.415405 -0.41095,-1.797436 -0.1833,-0.09764 -0.96186,-0.169059 -1.84271,-0.169059 h -1.52528 l 0.12894,-0.399635 c 0.071,-0.219798 0.27303,-0.792003 0.44907,-1.271566 0.5093,-1.387393 0.11589,-2.543132 -0.86568,-2.543132 -0.39951,0 -0.74846,0.425344 -0.75073,0.915099 -0.003,0.608944 -0.43281,1.420377 -1.34291,2.534326 -1.17399,1.436891 -1.49365,1.741061 -1.9655,1.870214 -0.33009,0.09035 -0.33012,0.09062 -0.29065,2.798598 l 0.0395,2.708241 0.36331,0.04417 c 0.19981,0.0243 0.85376,0.202869 1.45321,0.396834 1.73578,0.561643 2.17055,0.634456 3.60948,0.604499 1.2907,-0.02688 1.3741,-0.04816 1.70752,-0.435989 z m -8.25242,-1.130581 c 0.0523,-0.450573 -0.28428,-0.772698 -0.67722,-0.647984 -0.34073,0.10814 -0.4956,0.453182 -0.37459,0.834498 0.0671,0.21143 0.19907,0.267715 0.54825,0.233842 0.37224,-0.0361 0.4682,-0.116218 0.50356,-0.420356 z"
       id="path10523" />
    <path
       style="opacity:1;fill:#a54a3b;fill-opacity:1;stroke:none;stroke-width:0.03698;stroke-linecap:round;stroke-linejoin:round;stroke-miterlimit:4;stroke-dasharray:none;stroke-opacity:1;paint-order:stroke fill markers"
       d="m 188.43305,87.243101 c -0.009,0.0057 -0.0272,0.112133 -0.0417,0.238221 -0.0146,0.126023 -0.0433,0.310697 -0.0639,0.410257 -0.0208,0.09956 -0.0496,0.243097 -0.0642,0.318972 -0.0146,0.07585 -0.0481,0.215416 -0.0744,0.310077 -0.0263,0.0946 -0.0589,0.218617 -0.0725,0.275474 -0.0131,0.05688 -0.0346,0.118683 -0.047,0.137559 -0.0117,0.01873 -0.0285,0.06515 -0.0362,0.103155 -0.007,0.038 -0.0222,0.08825 -0.0324,0.111869 -0.0658,0.153626 -0.16092,0.427609 -0.1618,0.465747 -5.7e-4,0.025 -0.0153,0.06371 -0.0329,0.08598 -0.0176,0.02227 -0.0471,0.09485 -0.0656,0.161057 -0.0186,0.06627 -0.0458,0.138173 -0.0604,0.159645 -0.0257,0.03787 -0.1218,0.301215 -0.14578,0.399018 -0.005,0.02632 -0.0275,0.07718 -0.0468,0.112995 -0.0193,0.03582 -0.0355,0.08122 -0.036,0.100815 -9.1e-4,0.04984 -0.0746,0.287786 -0.0965,0.313106 -0.0102,0.01141 -0.0263,0.07749 -0.0362,0.14679 -0.0102,0.06925 -0.0262,0.152963 -0.0358,0.186083 -0.0519,0.175898 -0.0624,0.357696 -0.0908,1.561532 -0.0165,0.703788 -0.0382,1.307099 -0.0493,1.379969 -0.0117,0.08059 -0.0333,0.146845 -0.0554,0.175553 -0.0196,0.02543 -0.0361,0.06278 -0.0365,0.08311 -0.002,0.07075 -0.0572,0.147917 -0.20252,0.281695 -0.18924,0.174096 -0.34866,0.251973 -0.55711,0.272175 -0.0939,0.0095 -1.12632,-0.01023 -2.90686,-0.05409 l -2.76127,-0.06827 -0.11127,-0.05683 c -0.0611,-0.03125 -0.14314,-0.06283 -0.18202,-0.07032 -0.0592,-0.01155 -0.087,-0.03258 -0.17097,-0.131491 -0.0965,-0.113829 -0.12502,-0.154236 -0.26747,-0.379619 l -0.0652,-0.103154 0.0288,-1.374784 c 0.0285,-1.365735 0.0285,-1.375535 -0.007,-1.490003 -0.0195,-0.06334 -0.035,-0.133757 -0.0345,-0.156236 5.3e-4,-0.02252 -0.009,-0.04131 -0.0215,-0.0416 -0.0117,-2.84e-4 -0.0391,-0.03016 -0.0598,-0.06632 -0.0355,-0.06239 -0.11609,-0.147475 -0.40185,-0.424219 -0.0684,-0.06638 -0.14845,-0.148227 -0.17767,-0.181825 -0.0293,-0.03373 -0.0797,-0.0855 -0.112,-0.115202 -0.0324,-0.02971 -0.0894,-0.0866 -0.12706,-0.126374 -0.0766,-0.08163 -0.20145,-0.184918 -0.2239,-0.185453 -0.009,-1.89e-4 -0.0491,-0.03506 -0.0909,-0.07771 -0.0419,-0.0425 -0.10923,-0.0951 -0.14953,-0.116665 -0.0853,-0.04586 -0.12705,-0.08059 -0.26499,-0.220042 -0.0554,-0.05613 -0.11391,-0.102233 -0.12984,-0.1026 -0.016,-3.69e-4 -0.0431,-0.01695 -0.0603,-0.03678 -0.0171,-0.01984 -0.0686,-0.05599 -0.11419,-0.0803 -0.0456,-0.02432 -0.11186,-0.06957 -0.14714,-0.100523 -0.0352,-0.03109 -0.10352,-0.06748 -0.15175,-0.08104 -0.0482,-0.01287 -0.12852,-0.05168 -0.17862,-0.08472 -0.0865,-0.05714 -0.28614,-0.157949 -0.31404,-0.158595 -0.007,-1.65e-4 -0.0484,-0.02672 -0.0917,-0.05916 -0.0433,-0.0323 -0.12107,-0.07768 -0.17296,-0.100523 -0.0519,-0.023 -0.10572,-0.05509 -0.11961,-0.07137 -0.0357,-0.04162 -0.12019,-0.09697 -0.1316,-0.08612 -0.0158,0.01499 -0.10556,-0.0415 -0.12398,-0.0779 -0.009,-0.01864 -0.0629,-0.05967 -0.11887,-0.09124 -0.15441,-0.08694 -0.38864,-0.339746 -0.46326,-0.500013 -0.0329,-0.07067 -0.0594,-0.147335 -0.0589,-0.170402 9.1e-4,-0.04355 -0.1101,-0.30019 -0.13466,-0.310892 -0.0193,-0.0078 -0.0131,-0.217628 0.007,-0.237419 0.009,-0.0086 0.0351,-0.105362 0.0581,-0.214324 0.0229,-0.109019 0.0484,-0.221465 0.0567,-0.249852 0.009,-0.02832 0.0241,-0.08251 0.0351,-0.120437 0.0117,-0.03776 0.0297,-0.121139 0.0417,-0.185245 0.0117,-0.06407 0.0312,-0.137633 0.0426,-0.163582 l 0.0208,-0.0472 0.0131,0.05221 c 0.0117,0.04765 0.0117,0.04664 0.007,-0.01301 -0.003,-0.04059 0.003,-0.06956 0.0169,-0.07757 0.0117,-0.007 0.055,-0.07039 0.0947,-0.140996 0.15152,-0.268147 0.19114,-0.327136 0.24947,-0.371505 0.0331,-0.02512 0.0604,-0.05535 0.0605,-0.06704 7e-4,-0.03027 0.1702,-0.186646 0.21698,-0.200233 0.0215,-0.0069 0.0711,-0.03638 0.11025,-0.06692 0.0886,-0.06918 0.24753,-0.143833 0.38466,-0.180807 0.0574,-0.01549 0.13656,-0.04174 0.1755,-0.05838 0.0943,-0.04024 0.29446,-0.05168 0.69287,-0.03985 0.29411,0.0083 0.33888,0.01375 0.42323,0.04972 0.0519,0.02196 0.16041,0.04818 0.24117,0.05824 0.0807,0.01068 0.16894,0.03053 0.19599,0.04548 0.0846,0.04701 0.12047,0.01946 0.14124,-0.108316 0.0215,-0.132589 0.0177,-0.01126 0.0551,-1.754948 0.0167,-0.780844 0.0382,-1.485776 0.0477,-1.566539 0.0233,-0.198441 0.16469,-0.54672 0.27889,-0.68669 0.0267,-0.03287 0.0586,-0.09312 0.0706,-0.133802 0.0172,-0.05854 0.0327,-0.07764 0.0739,-0.09087 0.0335,-0.01097 0.0649,-0.04076 0.0884,-0.0844 0.02,-0.03727 0.0637,-0.08292 0.097,-0.101444 0.0333,-0.01854 0.0608,-0.04628 0.0611,-0.06147 8.8e-4,-0.038 0.0884,-0.122133 0.11536,-0.110977 0.0117,0.0047 0.0436,-0.01785 0.0699,-0.05073 0.0263,-0.03289 0.0846,-0.07644 0.12955,-0.09675 0.045,-0.02031 0.12122,-0.06067 0.16958,-0.08967 0.19075,-0.11434 0.28186,-0.152941 0.38485,-0.162857 0.0574,-0.006 0.15479,-0.0204 0.21667,-0.03316 0.0618,-0.01316 0.22258,-0.02322 0.35711,-0.02348 0.22238,-7.06e-4 0.26088,0.0045 0.42382,0.05134 0.11887,0.03435 0.21147,0.07349 0.27506,0.116637 0.0622,0.0421 0.12531,0.06915 0.17952,0.07699 0.046,0.0069 0.0991,0.02672 0.11814,0.04457 0.019,0.01798 0.0775,0.06103 0.12999,0.09587 0.0527,0.03486 0.14081,0.110027 0.19604,0.167112 0.0553,0.05714 0.125,0.12516 0.15501,0.151157 0.0314,0.02734 0.0503,0.05762 0.0448,0.07139 -0.0117,0.02739 0.0488,0.09225 0.0725,0.07831 0.0263,-0.01549 0.0758,0.06143 0.1158,0.180318 0.021,0.0625 0.0449,0.117894 0.0529,0.123348 0.0345,0.02303 0.11522,0.213739 0.14831,0.350667 0.0198,0.08148 0.0458,0.159995 0.0581,0.174567 0.0117,0.01492 0.0262,0.085 0.031,0.156611 0.005,0.07163 0.0102,0.153556 0.0131,0.182193 0.009,0.09555 -0.02,1.281587 -0.0324,1.35099 -0.0146,0.08126 0.0203,0.183624 0.0768,0.225179 0.0255,0.01873 0.0769,0.02898 0.15519,0.0308 0.13818,0.0032 0.24907,0.02932 0.36682,0.08659 0.047,0.02288 0.10498,0.04733 0.12867,0.05445 0.0237,0.0064 0.0931,0.03872 0.15427,0.07025 l 0.11127,0.05742 0.34625,0.0083 c 0.3878,0.0094 0.60443,0.033 0.63273,0.06875 0.0102,0.01345 0.0334,0.02432 0.0509,0.02472 0.0176,4.08e-4 0.0727,0.0204 0.12238,0.04467 0.0498,0.02411 0.12004,0.05017 0.1563,0.05773 0.0453,0.0098 0.0926,0.04075 0.15186,0.100187 0.0746,0.07485 0.16218,0.122514 0.22877,0.124342 0.0102,2.98e-4 0.0324,0.01595 0.0487,0.03492 0.0362,0.04208 0.0624,0.04869 0.34532,0.08712 0.51681,0.07046 0.56547,0.0808 0.66624,0.141638 0.0525,0.03164 0.10849,0.05795 0.12443,0.05831 0.0372,8.61e-4 0.14968,0.06167 0.23716,0.128187 0.0377,0.02866 0.086,0.05244 0.10718,0.05294 0.0217,5.04e-4 0.0501,0.01945 0.0651,0.04334 0.0146,0.02329 0.0482,0.04777 0.075,0.05425 0.0634,0.01609 0.37504,0.332409 0.42296,0.430208 0.0199,0.04067 0.0525,0.09087 0.0724,0.111649 0.0199,0.02079 0.0512,0.07445 0.0698,0.119048 0.0184,0.04474 0.0589,0.113829 0.0899,0.153689 0.0379,0.0487 0.056,0.09051 0.0551,0.127923 -9.1e-4,0.04897 0.0392,0.181048 0.0813,0.26634 0.0169,0.03432 0.0452,0.212001 0.0527,0.332308 0.003,0.04584 0.0157,0.116637 0.0285,0.157387 0.0131,0.04081 0.0275,0.130511 0.0327,0.199501 0.005,0.069 0.016,0.129664 0.0243,0.134971 0.0193,0.01214 0.0155,0.175997 -0.005,0.187674 z m -1.01146,-0.553192 c -0.0117,-0.10061 -0.11317,-0.417747 -0.18622,-0.584483 -0.0281,-0.06398 -0.0927,-0.144739 -0.2351,-0.293736 -0.13481,-0.140893 -0.15043,-0.154181 -0.18309,-0.154937 -0.0153,-3.54e-4 -0.0562,-0.01826 -0.0908,-0.03968 -0.0391,-0.0243 -0.10967,-0.04495 -0.18595,-0.05461 -0.0677,-0.0089 -0.20461,-0.02667 -0.30433,-0.04053 -0.16476,-0.02283 -0.27776,-0.02369 -0.50223,-0.0043 -0.0991,0.0094 -0.15311,-0.01978 -0.19823,-0.104763 -0.0195,-0.03657 -0.0653,-0.08751 -0.10162,-0.113069 -0.0365,-0.0257 -0.095,-0.07328 -0.12998,-0.105976 -0.035,-0.03254 -0.072,-0.05943 -0.0825,-0.05969 -0.0102,-2.4e-4 -0.0376,-0.0158 -0.0603,-0.03459 -0.0228,-0.0188 -0.0741,-0.04004 -0.11419,-0.04726 -0.0401,-0.0067 -0.14926,-0.02993 -0.24271,-0.05037 -0.20344,-0.04464 -0.39675,-0.05101 -0.539,-0.01832 -0.26259,0.06135 -0.32313,0.0579 -0.40951,-0.02264 -0.0305,-0.0285 -0.0914,-0.0656 -0.1351,-0.08224 -0.0517,-0.01976 -0.0927,-0.05056 -0.11726,-0.08827 -0.0255,-0.03905 -0.0553,-0.06095 -0.0918,-0.06722 -0.0298,-0.0051 -0.16332,-0.02908 -0.29676,-0.05294 -0.23837,-0.04281 -0.42467,-0.04639 -0.44925,-0.0089 -0.005,0.0086 -0.047,0.0092 -0.0926,0.0036 -0.0798,-0.01068 -0.18404,0.0187 -0.21317,0.06147 -0.009,0.01447 -0.0505,0.02589 -0.12077,0.03582 -0.0146,0.0026 -0.0489,0.01199 -0.077,0.02367 -0.0279,0.01111 -0.0563,0.0136 -0.0627,0.0059 -0.0358,-0.04221 -0.0362,-0.255115 -0.003,-1.347493 0.0353,-1.160443 0.0348,-1.300479 -0.007,-1.597851 -0.005,-0.03097 -0.0297,-0.08112 -0.0562,-0.111431 -0.0265,-0.03044 -0.0524,-0.07887 -0.0574,-0.107804 -0.0146,-0.08004 -0.21207,-0.309933 -0.30885,-0.358624 -0.031,-0.01563 -0.0562,-0.03582 -0.056,-0.04487 2.1e-4,-0.0088 -0.009,-0.01671 -0.0186,-0.01696 -0.0102,-2.4e-4 -0.0386,-0.01668 -0.0626,-0.0364 -0.043,-0.03552 -0.12619,-0.06479 -0.3151,-0.111124 -0.0737,-0.01809 -0.1414,-0.02024 -0.28818,-0.0097 -0.18131,0.01345 -0.21673,0.02336 -0.35324,0.09801 -0.0146,0.0085 -0.0577,0.02718 -0.0962,0.04297 -0.095,0.0389 -0.20776,0.13136 -0.2529,0.20752 -0.0205,0.03462 -0.0682,0.08662 -0.10615,0.115569 -0.0837,0.06403 -0.14898,0.188936 -0.19534,0.373299 -0.0324,0.128245 -0.0386,0.294279 -0.0952,2.525553 -0.0334,1.313514 -0.0672,2.394543 -0.0755,2.402311 -0.009,0.0072 -0.0433,0.01802 -0.0782,0.02291 -0.0517,0.0076 -0.0863,-0.0035 -0.18766,-0.05992 -0.12326,-0.06822 -0.52606,-0.332511 -0.5774,-0.378789 -0.0148,-0.01345 -0.0427,-0.02453 -0.062,-0.02499 -0.0193,-4.47e-4 -0.0618,-0.01986 -0.0943,-0.04298 -0.0326,-0.02313 -0.0886,-0.04841 -0.12457,-0.05597 -0.0696,-0.01476 -0.11713,-0.03883 -0.16726,-0.08489 -0.0725,-0.06647 -0.44,-0.134942 -0.73773,-0.137442 -0.25672,-0.0016 -0.67717,0.08042 -0.67858,0.133231 -2.6e-4,0.01023 -0.0332,0.04822 -0.0731,0.0849 -0.0399,0.03666 -0.0887,0.101487 -0.10849,0.143919 -0.0196,0.0424 -0.0503,0.09244 -0.0682,0.111036 -0.0179,0.0186 -0.0541,0.09571 -0.0806,0.17136 -0.0265,0.07559 -0.0639,0.179422 -0.0835,0.230702 -0.0279,0.07365 -0.0365,0.140878 -0.041,0.319512 -0.005,0.20644 -0.002,0.231689 0.0326,0.288175 0.0209,0.03399 0.0724,0.0805 0.11434,0.103418 0.042,0.02276 0.10907,0.07287 0.14921,0.111241 0.04,0.03837 0.087,0.07017 0.10411,0.07056 0.0171,3.96e-4 0.0527,0.01921 0.0791,0.0419 0.0265,0.02269 0.075,0.05278 0.10805,0.06685 0.0331,0.01389 0.0737,0.03885 0.0905,0.05504 0.0169,0.01619 0.0629,0.04386 0.1025,0.0616 0.0396,0.01774 0.0964,0.04347 0.12604,0.05717 0.0296,0.01389 0.0613,0.0251 0.0701,0.02531 0.009,2.02e-4 0.0335,0.01993 0.0548,0.04369 0.0341,0.03794 0.1063,0.07003 0.1658,0.07375 0.0102,6.28e-4 0.0679,0.03726 0.1272,0.08134 0.13349,0.09932 0.35204,0.244403 0.40499,0.268838 0.0217,0.01068 0.0351,0.02524 0.0295,0.03373 -0.005,0.0086 0.005,0.01184 0.0247,0.0079 0.0191,-0.004 0.0346,-1.33e-4 0.0345,0.0095 -5.4e-4,0.02295 0.1057,0.09254 0.14284,0.0934 0.0155,3.6e-4 0.0872,0.06052 0.15901,0.133553 0.0718,0.07318 0.13964,0.133099 0.15056,0.133363 0.0117,2.54e-4 0.0672,0.0447 0.12516,0.09884 0.0579,0.05413 0.13335,0.117601 0.16781,0.141069 0.0344,0.02347 0.12209,0.102569 0.19498,0.17557 0.0729,0.07306 0.15065,0.147253 0.17294,0.164778 0.032,0.02517 0.0362,0.03697 0.0199,0.05561 -0.0167,0.01907 -0.0131,0.02265 0.0157,0.0185 0.0343,-0.0051 0.0599,0.01601 0.34206,0.27904 0.10819,0.100932 0.15416,0.156842 0.15846,0.192846 0.003,0.01979 0.016,0.03708 0.0303,0.03844 0.0146,0.0013 0.035,0.0038 0.046,0.0054 0.0117,0.0017 0.0358,0.03783 0.0551,0.08011 0.0246,0.0541 0.0489,0.08084 0.0816,0.08994 0.0615,0.01693 0.0867,0.04047 0.11288,0.105422 0.0117,0.02967 0.0362,0.06972 0.0537,0.08928 0.0479,0.05318 0.21329,0.407251 0.25429,0.544451 0.0282,0.09454 0.0357,0.167249 0.0346,0.336996 -7.2e-4,0.119035 0.005,0.245325 0.0102,0.280585 0.0229,0.130555 -0.22035,0.113521 2.64862,0.185447 1.41761,0.03572 2.60125,0.07042 2.63026,0.07913 0.0468,0.01272 0.0579,0.0086 0.0984,-0.04248 0.0437,-0.05471 0.0463,-0.06956 0.063,-0.359467 0.0102,-0.166333 0.0253,-0.333414 0.035,-0.371306 0.0102,-0.03794 0.0307,-0.126973 0.0468,-0.198116 0.016,-0.07115 0.0373,-0.148549 0.0469,-0.172135 0.0102,-0.02362 0.0244,-0.09333 0.0327,-0.155136 0.009,-0.06167 0.0307,-0.146011 0.0497,-0.187269 0.019,-0.04124 0.035,-0.08913 0.0354,-0.106386 3.9e-4,-0.01726 0.007,-0.03523 0.0152,-0.04002 0.007,-0.0043 0.0255,-0.05236 0.0387,-0.105874 0.024,-0.09656 0.0464,-0.149614 0.11171,-0.264855 0.0187,-0.03292 0.0393,-0.08698 0.046,-0.120175 0.007,-0.03319 0.0231,-0.09131 0.0365,-0.129035 0.0131,-0.03785 0.0354,-0.107409 0.0486,-0.15477 0.0131,-0.04737 0.0295,-0.09365 0.0365,-0.103139 0.007,-0.01009 0.0181,-0.04828 0.0248,-0.08659 0.007,-0.03816 0.036,-0.111635 0.0651,-0.163046 0.0291,-0.05139 0.0592,-0.128508 0.0671,-0.171174 0.007,-0.04267 0.0255,-0.104573 0.0391,-0.137604 0.0131,-0.03303 0.0288,-0.07948 0.0336,-0.103213 0.005,-0.02372 0.0296,-0.101107 0.0547,-0.171956 0.0488,-0.13693 0.08,-0.23928 0.0943,-0.309603 0.0184,-0.0901 0.0384,-0.14674 0.0589,-0.16626 0.0117,-0.01141 0.0281,-0.08491 0.0364,-0.163898 0.009,-0.07907 0.0233,-0.167201 0.0331,-0.196006 0.0102,-0.02873 0.0257,-0.09856 0.0353,-0.155092 0.0241,-0.142471 0.0408,-0.804858 0.0238,-0.945511 z m -1.21405,6.555271 c -0.0217,-0.02332 -0.0673,-0.06884 -0.10119,-0.101211 -0.0339,-0.03237 -0.0747,-0.08203 -0.0906,-0.110319 -0.016,-0.0283 -0.035,-0.0517 -0.0424,-0.05187 -0.007,-1.73e-4 -0.0131,-0.01053 -0.0131,-0.02384 3.8e-4,-0.01652 -0.0329,-0.02708 -0.112,-0.03521 -0.0619,-0.0059 -0.12194,-0.01978 -0.1335,-0.02971 -0.0247,-0.0212 -0.2352,0.0094 -0.33636,0.04882 -0.0918,0.0359 -0.21875,0.15181 -0.2767,0.252746 -0.0419,0.07274 -0.0501,0.107219 -0.0526,0.217724 -0.005,0.201752 0.0215,0.316918 0.0886,0.389243 0.0313,0.03378 0.0567,0.06567 0.0566,0.07108 -5e-4,0.02135 0.11346,0.115393 0.16997,0.140103 0.17393,0.07628 0.24363,0.08769 0.3805,0.06262 0.17885,-0.03287 0.23057,-0.06911 0.36852,-0.258754 0.0238,-0.0328 0.0498,-0.06393 0.0577,-0.06916 0.0202,-0.01272 0.0661,-0.246211 0.0715,-0.362665 0.005,-0.08007 -0.003,-0.104339 -0.035,-0.13946 z"
       id="path10876" />
  </g>
</svg>
